<?xml version="1.0" encoding="UTF-8" ?>
<!DOCTYPE svg PUBLIC "-//W3C//DTD SVG 1.1//EN" "http://www.w3.org/Graphics/SVG/1.1/DTD/svg11.dtd">
<svg width="512pt" height="512pt" viewBox="0 0 512 512" version="1.1" xmlns="http://www.w3.org/2000/svg">
<g id="#ffffffff">
</g>
<g id="#33D37Bff">
<path fill="#33D37B" opacity="1.00" d=" M 103.06 85.29 C 165.68 85.36 228.30 85.31 290.92 85.31 C 292.80 85.01 294.02 86.60 295.26 87.72 C 300.45 92.88 305.44 98.26 311.00 103.03 C 324.98 116.71 338.89 130.47 352.77 144.25 C 354.33 145.32 353.91 147.32 354.03 148.95 C 353.92 241.53 354.11 334.11 353.93 426.69 C 311.64 426.67 269.35 426.62 227.06 426.71 C 226.97 423.14 226.98 419.57 227.01 416.01 C 266.00 415.98 305.00 416.02 343.99 415.99 C 344.01 328.66 344.01 241.34 343.99 154.01 C 324.69 153.98 305.40 154.01 286.10 154.00 C 285.86 151.03 285.35 148.04 285.73 145.06 C 286.33 139.06 285.92 133.02 285.62 127.02 C 286.17 120.69 286.16 114.31 285.62 107.98 C 285.75 103.99 286.15 100.01 286.01 96.02 C 228.35 95.98 170.68 96.00 113.01 96.01 C 112.99 202.67 112.99 309.33 113.01 415.99 C 125.91 416.06 138.80 415.90 151.70 416.07 C 151.70 419.55 151.74 423.03 151.50 426.52 C 135.36 426.90 119.21 426.51 103.07 426.71 C 102.95 312.90 102.96 199.10 103.06 85.29 M 296.05 103.56 C 295.94 116.83 296.01 130.10 296.02 143.37 C 309.52 143.45 323.03 143.57 336.53 143.30 C 332.14 138.41 327.44 133.80 322.54 129.42 C 313.62 120.90 305.12 111.93 296.05 103.56 Z" />
<path fill="#33D37B" opacity="1.00" d=" M 381.05 135.05 C 383.74 130.43 388.72 127.36 394.05 126.97 C 399.94 126.73 406.11 129.83 408.68 135.30 C 412.07 141.38 410.52 148.52 410.89 155.14 C 418.17 155.23 425.45 155.12 432.72 155.22 C 432.74 183.11 432.71 211.01 432.74 238.91 C 429.18 239.00 425.62 239.00 422.06 238.94 C 421.97 221.18 422.10 203.41 422.00 185.65 C 418.30 185.57 414.61 185.57 410.92 185.65 C 410.80 247.77 410.91 309.88 410.86 372.00 C 410.74 377.59 411.13 383.21 410.72 388.80 C 407.70 396.83 403.42 404.34 400.09 412.24 C 398.42 415.93 396.70 419.59 394.62 423.07 C 391.12 414.80 386.97 406.85 383.38 398.62 C 381.83 394.82 378.89 391.35 378.98 387.07 C 379.02 319.74 378.99 252.41 379.00 185.07 C 376.79 185.01 374.59 184.96 372.38 184.88 C 372.40 181.45 372.40 178.01 372.55 174.59 C 374.69 174.43 376.84 174.33 378.98 174.21 C 379.00 171.49 379.00 168.77 379.00 166.06 C 376.85 165.91 374.70 165.79 372.56 165.58 C 372.37 162.20 372.37 158.82 372.56 155.44 C 374.69 155.24 376.83 155.12 378.97 155.00 C 379.56 148.38 377.46 141.08 381.05 135.05 M 390.28 141.24 C 390.54 145.87 390.66 150.50 390.65 155.14 C 394.09 155.20 397.53 155.18 400.96 155.12 C 400.68 150.35 401.83 145.31 400.26 140.72 C 398.65 136.38 391.30 136.74 390.28 141.24 M 390.02 165.90 C 390.00 168.71 389.99 171.52 390.00 174.34 C 393.38 174.41 396.76 174.39 400.14 174.30 C 400.17 171.50 400.17 168.70 400.16 165.89 C 396.77 165.85 393.39 165.85 390.02 165.90 M 410.94 166.03 C 410.86 169.01 410.85 171.99 410.88 174.97 C 414.59 175.01 418.30 175.01 422.01 174.98 C 422.03 171.99 422.03 169.00 422.01 166.02 C 418.32 165.98 414.63 165.98 410.94 166.03 M 389.61 185.64 C 389.45 251.43 389.61 317.22 389.52 383.02 C 389.00 388.68 392.66 393.42 394.74 398.40 C 396.60 394.96 398.60 391.55 399.87 387.84 C 400.21 383.90 399.93 379.94 400.00 376.00 C 399.98 312.57 400.04 249.14 399.97 185.71 C 396.51 185.56 393.06 185.56 389.61 185.64 Z" />
<path fill="#33D37B" opacity="1.00" d=" M 148.01 139.01 C 169.33 139.00 190.65 138.98 211.97 139.02 C 212.00 142.34 211.99 145.66 211.96 148.97 C 190.64 149.03 169.33 149.00 148.01 148.99 C 147.99 145.66 147.99 142.34 148.01 139.01 Z" />
<path fill="#33D37B" opacity="1.00" d=" M 148.01 203.01 C 201.33 203.01 254.65 202.97 307.97 203.02 C 308.00 206.34 307.99 209.66 307.96 212.97 C 254.64 213.03 201.33 213.00 148.01 212.99 C 147.99 209.66 147.99 206.33 148.01 203.01 Z" />
<path fill="#33D37B" opacity="1.00" d=" M 287.05 224.66 C 293.96 224.85 300.90 225.33 307.81 224.72 C 308.02 228.14 308.02 231.55 307.97 234.97 C 254.65 235.03 201.33 235.00 148.01 234.99 C 147.99 231.49 147.99 227.99 148.00 224.49 C 153.33 225.09 158.70 225.16 164.05 224.89 C 170.03 224.19 176.02 225.42 182.02 224.98 C 190.35 224.10 198.71 225.73 207.05 224.66 C 213.70 224.79 220.39 225.42 227.05 224.66 C 232.71 224.69 238.38 225.36 244.05 224.89 C 250.03 224.19 256.01 225.42 262.01 224.98 C 270.35 224.10 278.71 225.73 287.05 224.66 Z" />
<path fill="#33D37B" opacity="1.00" d=" M 148.06 245.28 C 201.34 245.35 254.62 245.34 307.90 245.29 C 308.00 248.85 308.00 252.41 307.96 255.97 C 254.64 256.03 201.33 256.00 148.01 255.99 C 147.98 252.42 147.98 248.85 148.06 245.28 Z" />
<path fill="#33D37B" opacity="1.00" d=" M 148.01 267.01 C 201.33 267.00 254.64 266.98 307.96 267.02 C 307.99 270.34 307.99 273.66 307.96 276.98 C 254.64 277.02 201.33 277.00 148.01 276.99 C 147.99 273.66 147.99 270.34 148.01 267.01 Z" />
<path fill="#33D37B" opacity="1.00" d=" M 148.01 288.01 C 182.67 287.99 217.33 287.99 251.99 288.01 C 252.02 291.57 252.02 295.13 251.93 298.69 C 217.31 298.65 182.69 298.66 148.07 298.69 C 147.98 295.13 147.98 291.57 148.01 288.01 Z" />
<path fill="#33D37B" opacity="1.00" d=" M 163.44 320.42 C 166.10 313.91 173.71 309.92 180.58 311.52 C 183.35 312.12 185.54 314.07 188.17 315.02 C 191.37 315.40 193.65 312.45 196.61 311.71 C 203.19 309.18 210.58 313.27 213.88 319.06 C 215.68 322.71 215.63 326.89 216.04 330.85 C 219.96 333.10 224.73 335.39 225.86 340.23 C 226.78 345.27 226.40 350.97 223.17 355.16 C 221.10 357.98 217.85 359.47 214.93 361.21 C 214.23 382.55 214.84 403.91 214.53 425.25 C 206.37 419.52 198.63 413.21 190.60 407.29 C 189.72 406.86 188.55 405.52 187.59 406.47 C 179.01 412.98 170.68 419.83 162.00 426.22 C 161.96 404.58 162.06 382.94 161.96 361.30 C 157.56 358.88 152.68 355.89 151.41 350.66 C 150.60 346.70 150.47 342.19 152.75 338.66 C 154.69 334.92 158.67 333.07 162.02 330.83 C 162.28 327.34 162.15 323.74 163.44 320.42 M 174.01 323.07 C 173.94 327.19 174.63 331.69 172.23 335.34 C 170.32 339.14 166.07 340.60 162.94 343.15 C 162.94 344.72 162.93 346.30 162.92 347.88 C 166.57 350.51 170.63 353.06 172.55 357.34 C 174.44 360.52 173.97 364.33 174.02 367.87 C 175.48 368.96 176.88 370.74 178.93 370.39 C 182.31 369.35 185.26 366.76 188.98 366.94 C 192.72 366.46 196.01 368.45 199.29 369.90 C 201.48 370.79 203.98 369.81 204.94 367.63 C 205.94 363.66 205.37 359.21 207.77 355.66 C 209.74 351.88 213.92 350.34 217.07 347.78 C 217.07 346.25 217.07 344.73 217.06 343.21 C 214.11 341.49 210.91 339.98 208.74 337.24 C 205.89 333.91 205.73 329.32 205.51 325.17 C 205.43 322.73 202.83 321.86 201.11 320.73 C 197.63 322.64 194.00 324.68 189.96 324.97 C 186.12 325.15 182.84 322.95 179.60 321.24 C 177.55 320.20 175.70 322.17 174.01 323.07 M 181.80 380.71 C 178.91 381.36 175.90 380.91 173.00 380.57 C 173.00 388.79 172.99 397.02 173.00 405.25 C 178.59 401.46 183.57 396.85 189.15 393.07 L 189.87 393.05 C 195.14 396.44 199.72 400.82 205.00 404.23 C 205.02 396.23 204.98 388.24 205.01 380.25 C 199.66 382.28 194.30 379.68 189.88 376.76 C 187.09 377.87 184.61 379.65 181.80 380.71 Z" />
<path fill="#33D37B" opacity="1.00" d=" M 265.69 351.67 C 269.53 344.10 279.81 340.57 287.35 344.68 C 293.56 347.40 297.73 354.24 297.05 361.04 C 297.13 365.76 293.95 369.59 291.55 373.37 C 293.43 373.14 295.75 373.89 297.19 372.29 C 303.65 366.02 311.77 361.33 320.69 359.77 C 321.39 363.03 322.02 366.31 322.70 369.57 C 317.56 370.89 312.60 373.08 308.37 376.31 C 305.52 378.51 303.31 381.40 300.56 383.70 C 294.06 384.38 287.36 384.31 280.97 382.77 C 273.54 384.58 265.87 383.96 258.30 383.94 C 258.31 380.44 258.26 376.95 258.48 373.47 C 262.45 373.25 266.42 373.37 270.39 373.22 C 267.70 370.24 264.76 367.09 264.11 362.96 C 263.76 359.16 263.62 355.06 265.69 351.67 M 274.15 359.77 C 274.72 363.67 278.29 365.94 280.87 368.54 C 283.58 365.98 287.39 363.32 286.51 359.03 C 286.61 355.25 282.41 353.15 279.09 353.69 C 276.01 353.77 274.32 357.03 274.15 359.77 Z" />
</g>
</svg>
