<?xml version="1.0" encoding="UTF-8" ?>
<!DOCTYPE svg PUBLIC "-//W3C//DTD SVG 1.1//EN" "http://www.w3.org/Graphics/SVG/1.1/DTD/svg11.dtd">
<svg width="512pt" height="512pt" viewBox="0 0 512 512" version="1.1" xmlns="http://www.w3.org/2000/svg">
<g id="#ffffffff">
</g>
<g id="#A86CD7ff">
<path fill="#A86CD7" opacity="1.00" d=" M 305.26 12.22 C 308.99 10.00 313.21 6.83 317.69 9.06 C 319.00 10.08 320.47 11.03 321.21 12.60 C 333.36 33.08 345.00 53.87 357.27 74.29 C 369.52 74.23 381.77 74.29 394.02 74.25 C 403.43 74.37 412.99 76.73 420.58 82.50 C 427.33 87.92 433.13 95.01 435.32 103.53 C 436.10 105.94 436.98 108.37 436.98 110.94 C 437.13 120.87 436.81 130.83 437.10 140.76 C 438.86 142.48 441.70 142.19 443.86 143.22 C 455.30 147.87 464.90 157.55 468.32 169.55 C 469.23 172.26 470.08 175.05 470.00 177.95 C 470.02 209.62 469.96 241.29 470.03 272.96 C 469.89 274.33 471.71 274.59 472.51 275.37 C 479.96 278.31 485.34 285.61 486.36 293.51 C 486.74 295.33 486.89 297.19 486.89 299.05 C 486.82 314.70 486.87 330.35 486.87 346.00 C 486.99 350.41 485.67 354.71 483.80 358.67 C 480.55 363.86 475.85 368.27 470.00 370.33 C 470.00 399.22 470.00 428.11 470.00 457.00 C 469.89 462.34 470.53 467.82 468.94 473.01 C 465.89 485.06 456.73 495.32 445.47 500.37 C 440.31 502.68 434.65 503.85 429.00 503.91 C 308.00 503.90 186.99 503.90 65.99 503.91 C 62.41 504.03 58.92 503.24 55.49 502.34 C 44.12 499.38 34.29 491.18 29.24 480.58 C 26.48 475.15 25.13 469.06 25.01 462.99 C 25.02 347.30 25.01 231.61 25.01 115.93 C 24.89 112.06 25.62 108.25 26.68 104.55 C 27.00 103.54 27.33 102.54 27.67 101.53 C 31.34 90.76 39.94 81.81 50.52 77.64 C 56.01 75.13 62.11 74.76 68.03 74.26 C 110.37 74.26 152.71 74.28 195.04 74.26 C 196.73 74.40 198.21 73.56 199.64 72.78 C 234.77 52.46 270.04 32.37 305.26 12.22 M 246.55 64.70 C 244.26 66.09 241.96 67.47 239.57 68.68 C 236.06 70.78 232.58 72.92 229.01 74.90 C 190.94 96.60 152.95 118.42 114.95 140.23 C 126.09 140.22 137.25 140.64 148.38 140.01 C 151.55 137.57 155.26 135.97 158.64 133.84 C 171.34 126.84 183.64 119.14 196.45 112.33 C 198.73 110.90 201.04 109.52 203.44 108.31 C 225.49 95.32 247.84 82.85 270.01 70.07 C 273.49 67.91 278.15 69.61 280.21 72.94 C 283.20 77.61 287.50 81.28 292.37 83.87 C 297.57 85.64 303.14 85.53 308.52 84.89 C 309.53 84.49 310.55 84.10 311.57 83.74 C 314.38 82.45 317.34 80.20 320.58 81.39 C 324.22 82.45 326.05 86.03 327.83 89.05 C 329.68 92.58 331.88 95.91 333.70 99.46 C 336.04 103.44 338.57 107.33 340.68 111.45 C 346.39 120.97 351.95 130.58 357.46 140.23 C 363.78 140.36 370.11 140.28 376.43 140.32 C 368.55 126.32 360.15 112.61 352.33 98.58 C 343.90 84.30 335.49 70.00 327.32 55.58 C 324.97 51.59 322.46 47.68 320.32 43.57 C 317.03 38.40 314.29 32.90 310.89 27.80 C 289.57 40.32 268.02 52.45 246.55 64.70 M 214.58 120.68 C 212.28 122.08 209.96 123.47 207.56 124.69 C 205.27 126.09 202.96 127.47 200.57 128.68 C 194.11 132.70 187.38 136.25 180.90 140.23 C 233.41 140.43 285.92 140.21 338.44 140.34 C 336.30 136.29 334.01 132.32 331.64 128.41 C 325.96 118.98 320.87 109.17 314.77 100.01 C 299.64 105.07 282.12 100.10 271.30 88.52 C 252.20 98.88 233.57 110.11 214.58 120.68 M 61.56 91.10 C 59.54 91.90 57.48 92.59 55.41 93.21 C 50.39 96.52 45.43 100.66 43.25 106.44 C 41.17 111.20 41.66 116.53 42.06 121.56 C 43.75 125.71 45.25 130.23 48.70 133.29 C 52.02 136.41 56.17 138.43 60.42 139.94 C 67.54 140.39 74.74 140.57 81.86 140.09 C 110.58 123.96 139.00 107.26 167.67 91.03 C 132.30 91.00 96.92 90.85 61.56 91.10 M 366.75 90.98 C 372.15 100.07 377.53 109.18 382.68 118.43 C 385.06 122.41 387.54 126.34 389.69 130.45 C 391.12 132.73 392.51 135.04 393.66 137.47 C 394.45 138.72 395.32 139.92 396.19 141.12 C 398.38 141.02 400.63 141.06 402.75 140.34 C 408.41 140.73 414.09 141.44 419.78 140.88 C 420.06 140.61 420.61 140.05 420.89 139.77 C 421.19 132.19 420.88 124.59 421.03 117.00 C 421.30 112.98 419.84 109.19 418.83 105.37 C 415.93 99.30 410.69 94.84 404.59 92.17 C 402.08 91.67 399.59 90.91 397.01 90.98 C 386.92 90.96 376.83 91.01 366.75 90.98 M 41.71 148.69 C 41.69 249.47 41.72 350.25 41.70 451.03 C 41.74 456.87 41.50 462.74 42.11 468.57 C 42.48 469.58 42.84 470.60 43.18 471.62 C 45.78 478.11 50.88 483.24 57.40 485.79 C 58.44 486.12 59.49 486.48 60.52 486.88 C 73.00 487.56 85.53 487.04 98.03 487.19 C 208.36 487.22 318.69 487.18 429.01 487.21 C 438.73 487.59 447.72 481.24 451.85 472.63 C 452.75 469.13 454.13 465.67 454.02 462.01 C 453.97 431.96 454.01 401.92 454.00 371.87 C 429.30 371.77 404.61 371.87 379.91 371.83 C 372.76 371.59 365.45 368.74 360.84 363.12 C 357.54 358.80 354.82 353.63 354.98 348.06 C 355.02 330.71 355.00 313.36 354.99 296.01 C 354.98 285.68 362.98 276.67 372.52 273.55 C 374.33 273.17 376.17 272.97 378.02 272.98 C 402.36 273.02 426.70 272.99 451.04 273.00 C 452.30 273.23 454.07 272.60 453.96 271.06 C 454.08 242.05 453.94 213.03 454.02 184.01 C 454.16 180.75 453.33 177.58 452.83 174.39 C 451.58 171.92 450.47 169.37 448.91 167.07 C 446.79 163.49 443.04 161.40 439.67 159.17 C 437.56 158.58 435.48 157.90 433.45 157.10 C 430.97 157.00 428.50 156.99 426.02 157.00 C 307.03 157.01 188.03 156.98 69.03 157.02 C 61.95 157.35 54.82 155.75 48.41 152.77 C 46.10 151.53 43.84 150.22 41.71 148.69 M 377.35 288.99 C 375.44 290.22 373.69 291.67 372.06 293.25 C 371.52 295.48 370.88 297.72 370.98 300.05 C 371.08 315.87 370.87 331.69 371.09 347.50 C 371.46 348.58 371.82 349.67 372.15 350.77 C 373.52 352.21 374.93 353.61 376.35 355.01 C 405.80 355.21 435.27 355.17 464.72 355.03 C 467.64 353.36 470.48 350.67 470.15 347.00 C 470.09 329.44 470.33 311.87 470.02 294.31 C 468.68 291.67 466.15 290.21 463.57 289.00 C 434.83 288.99 406.09 289.01 377.35 288.99 Z" />
<path fill="#A86CD7" opacity="1.00" d=" M 99.41 173.52 C 100.46 173.75 101.53 173.96 102.59 174.16 C 105.63 175.46 106.91 178.50 107.57 181.53 C 107.47 186.47 102.92 190.80 97.91 189.98 C 92.48 189.43 89.06 182.62 92.01 177.97 C 93.34 175.03 96.38 173.79 99.41 173.52 Z" />
<path fill="#A86CD7" opacity="1.00" d=" M 124.99 177.99 C 126.27 175.17 129.21 173.98 131.99 173.18 C 135.05 174.11 138.45 175.10 139.77 178.36 C 140.06 179.61 140.38 180.86 140.72 182.11 C 140.04 186.72 135.77 190.80 130.93 189.97 C 125.50 189.44 122.04 182.62 124.99 177.99 Z" />
<path fill="#A86CD7" opacity="1.00" d=" M 165.40 173.52 C 166.47 173.75 167.54 173.96 168.61 174.17 C 171.56 175.59 173.57 178.66 173.06 182.00 C 174.00 189.36 162.98 192.90 158.78 187.13 C 154.27 182.01 158.64 173.23 165.40 173.52 Z" />
<path fill="#A86CD7" opacity="1.00" d=" M 198.50 173.43 C 201.03 174.24 204.18 174.84 205.28 177.61 C 206.87 181.27 206.60 186.58 202.62 188.65 C 197.97 192.15 190.55 188.81 190.01 183.05 C 189.21 178.03 193.57 173.52 198.50 173.43 Z" />
<path fill="#A86CD7" opacity="1.00" d=" M 224.31 177.41 C 225.67 174.96 228.34 173.95 230.90 173.26 C 232.13 173.61 233.37 173.93 234.62 174.23 C 237.55 175.61 239.56 178.66 239.06 181.97 C 239.94 187.73 232.50 191.86 227.68 189.29 C 223.20 187.50 221.45 181.29 224.31 177.41 Z" />
<path fill="#A86CD7" opacity="1.00" d=" M 257.78 187.16 C 253.19 181.96 257.72 173.11 264.57 173.53 C 265.58 173.76 266.60 173.98 267.62 174.18 C 270.55 175.60 272.55 178.66 272.06 181.98 C 272.98 189.34 262.00 192.90 257.78 187.16 Z" />
<path fill="#A86CD7" opacity="1.00" d=" M 297.39 173.52 C 298.47 173.76 299.54 173.97 300.63 174.19 C 302.86 176.32 305.90 178.47 305.06 182.02 C 305.87 188.06 297.80 192.17 292.99 188.95 C 288.44 186.61 287.57 179.84 291.17 176.27 C 292.59 174.19 295.14 173.97 297.39 173.52 Z" />
<path fill="#A86CD7" opacity="1.00" d=" M 322.41 178.45 C 324.01 175.60 326.92 173.94 330.01 173.16 C 334.07 174.10 338.83 177.26 338.06 182.02 C 338.86 187.77 331.44 191.87 326.63 189.28 C 322.50 187.60 320.97 182.44 322.41 178.45 Z" />
<path fill="#A86CD7" opacity="1.00" d=" M 363.50 173.43 C 367.68 174.00 371.75 177.50 371.06 182.05 C 371.42 187.70 364.60 191.94 359.64 189.29 C 354.40 187.25 353.05 179.02 357.74 175.69 C 359.18 173.99 361.51 173.99 363.50 173.43 Z" />
<path fill="#A86CD7" opacity="1.00" d=" M 387.95 182.07 C 387.27 177.24 392.07 173.53 396.56 173.53 C 397.59 173.77 398.62 174.00 399.67 174.22 C 401.06 175.58 402.55 176.87 403.70 178.46 C 404.24 180.41 403.93 182.50 404.01 184.51 C 402.50 187.11 400.33 189.70 397.12 190.00 C 392.50 190.78 387.76 186.78 387.95 182.07 Z" />
<path fill="#A86CD7" opacity="1.00" d=" M 59.00 178.00 C 61.18 172.98 68.34 172.69 72.16 175.84 C 73.60 177.60 74.02 179.93 74.81 182.01 C 74.02 186.61 69.88 190.81 64.95 189.97 C 59.49 189.46 56.08 182.66 59.00 178.00 Z" />
<path fill="#A86CD7" opacity="1.00" d=" M 425.48 174.30 C 428.62 173.75 432.67 173.19 434.79 176.20 C 440.10 180.60 435.90 190.56 429.02 190.04 C 422.96 190.37 418.89 183.00 421.74 177.89 C 422.79 176.51 424.03 175.26 425.48 174.30 Z" />
<path fill="#A86CD7" opacity="1.00" d=" M 421.37 211.46 C 423.08 208.91 425.59 206.26 428.99 206.93 C 432.41 206.23 434.88 208.91 436.65 211.42 C 437.28 213.37 436.91 215.50 437.01 217.52 C 435.28 220.82 431.99 223.68 428.01 223.01 C 422.58 222.55 419.52 216.32 421.37 211.46 Z" />
<path fill="#A86CD7" opacity="1.00" d=" M 420.96 246.90 C 421.04 239.98 431.45 237.15 435.32 242.75 C 437.70 244.65 436.86 247.89 437.01 250.53 C 435.39 253.47 432.64 256.33 428.99 256.05 C 424.24 256.26 420.21 251.57 420.96 246.90 Z" />
<path fill="#A86CD7" opacity="1.00" d=" M 397.35 307.10 C 405.05 304.00 415.04 306.46 418.76 314.34 C 419.01 314.89 419.52 315.99 419.77 316.54 C 424.69 327.70 413.26 341.13 401.50 338.42 C 393.80 337.12 387.40 329.95 387.94 321.98 C 387.45 315.55 392.17 310.21 397.35 307.10 Z" />
<path fill="#A86CD7" opacity="1.00" d=" M 425.34 389.05 C 428.25 387.86 431.53 388.13 434.18 389.83 C 438.61 393.43 438.02 401.49 432.66 403.95 C 430.26 404.96 427.72 404.94 425.33 403.94 C 419.40 401.23 419.42 391.77 425.34 389.05 Z" />
<path fill="#A86CD7" opacity="1.00" d=" M 425.32 422.06 C 427.71 421.05 430.26 421.05 432.66 422.05 C 438.53 424.69 438.75 434.37 432.61 436.79 C 432.03 437.08 430.86 437.67 430.28 437.97 C 428.60 437.75 426.95 437.37 425.32 436.96 C 419.44 434.18 419.40 424.82 425.32 422.06 Z" />
<path fill="#A86CD7" opacity="1.00" d=" M 62.31 455.14 C 66.63 453.42 72.10 454.73 73.84 459.40 C 74.04 460.42 74.26 461.45 74.49 462.47 C 74.00 464.74 73.80 467.36 71.69 468.80 C 69.14 471.29 65.38 471.20 62.26 469.95 C 60.25 468.12 57.76 465.99 57.97 462.98 C 57.68 459.71 60.17 457.23 62.31 455.14 Z" />
<path fill="#A86CD7" opacity="1.00" d=" M 91.40 465.51 C 89.55 460.67 93.36 455.23 98.17 454.21 C 101.84 453.96 105.40 455.96 106.85 459.39 C 107.05 460.41 107.26 461.44 107.48 462.47 C 107.00 464.74 106.79 467.35 104.68 468.79 C 102.14 471.29 98.38 471.20 95.26 469.97 C 93.78 468.66 92.36 467.24 91.40 465.51 Z" />
<path fill="#A86CD7" opacity="1.00" d=" M 123.97 463.06 C 123.32 458.74 127.33 455.31 131.10 454.19 C 134.80 453.93 138.39 455.95 139.85 459.42 C 140.05 460.44 140.26 461.46 140.50 462.49 C 140.18 465.54 138.98 468.66 135.96 469.97 C 133.60 471.55 130.76 470.71 128.27 469.96 C 126.28 468.13 123.79 466.05 123.97 463.06 Z" />
<path fill="#A86CD7" opacity="1.00" d=" M 156.97 463.04 C 156.37 458.72 160.36 455.23 164.19 454.21 C 167.10 454.19 170.59 455.14 171.98 457.98 C 173.56 460.20 172.86 463.02 173.00 465.56 C 171.71 467.33 170.57 469.49 168.36 470.25 C 166.11 471.49 163.56 470.59 161.28 469.97 C 159.28 468.14 156.75 466.05 156.97 463.04 Z" />
<path fill="#A86CD7" opacity="1.00" d=" M 196.55 454.37 C 200.44 453.55 204.29 455.97 205.99 459.45 C 205.99 461.48 205.99 463.51 205.99 465.55 C 204.70 467.32 203.57 469.50 201.34 470.25 C 199.09 471.48 196.54 470.60 194.26 469.97 C 192.28 468.12 189.75 466.04 189.97 463.04 C 189.34 458.92 193.03 455.65 196.55 454.37 Z" />
<path fill="#A86CD7" opacity="1.00" d=" M 223.35 459.46 C 225.15 456.91 227.71 454.25 231.04 454.14 C 233.67 454.51 236.70 455.37 237.97 457.96 C 239.54 460.18 238.88 463.00 239.01 465.54 C 237.72 467.32 236.57 469.49 234.35 470.26 C 232.11 471.51 229.55 470.57 227.28 469.97 C 223.93 467.62 221.79 463.53 223.35 459.46 Z" />
<path fill="#A86CD7" opacity="1.00" d=" M 256.36 459.48 C 258.13 456.92 260.67 454.30 263.97 454.16 C 266.62 454.50 269.70 455.32 270.96 457.95 C 272.53 460.17 271.88 462.98 272.00 465.52 C 270.00 469.96 264.80 472.27 260.33 469.94 C 256.51 468.03 255.01 463.42 256.36 459.48 Z" />
<path fill="#A86CD7" opacity="1.00" d=" M 288.96 463.07 C 288.18 457.11 295.38 452.25 300.67 455.06 C 307.12 457.92 306.45 468.73 299.50 470.48 C 298.23 470.66 296.95 470.79 295.68 470.90 C 295.10 470.62 293.95 470.07 293.37 469.80 C 290.81 468.54 288.80 466.03 288.96 463.07 Z" />
<path fill="#A86CD7" opacity="1.00" d=" M 321.95 463.00 C 321.22 457.08 328.41 452.22 333.67 455.06 C 339.51 457.70 339.64 467.09 333.97 469.95 C 331.62 471.49 328.78 470.78 326.33 469.94 C 323.89 468.47 321.73 466.03 321.95 463.00 Z" />
<path fill="#A86CD7" opacity="1.00" d=" M 359.27 455.03 C 361.70 454.11 364.25 454.06 366.67 455.05 C 371.33 457.24 372.45 463.60 369.61 467.64 C 368.43 469.50 366.13 469.98 364.32 470.98 C 362.63 470.75 360.97 470.38 359.33 469.97 C 356.47 468.36 354.44 465.32 354.96 461.94 C 354.71 458.93 357.31 456.88 359.27 455.03 Z" />
<path fill="#A86CD7" opacity="1.00" d=" M 392.33 455.07 C 394.72 454.08 397.26 454.06 399.67 455.05 C 404.29 457.25 405.47 463.57 402.61 467.62 C 400.94 470.26 397.51 470.63 394.69 470.97 C 394.11 470.67 392.96 470.08 392.39 469.78 C 386.28 467.34 386.52 457.74 392.33 455.07 Z" />
<path fill="#A86CD7" opacity="1.00" d=" M 420.95 461.98 C 420.70 456.20 427.80 452.69 432.67 455.06 C 435.52 456.63 437.58 459.64 437.06 463.02 C 437.43 468.95 430.26 472.55 425.32 469.94 C 422.46 468.37 420.41 465.33 420.95 461.98 Z" />
</g>
</svg>
