<?xml version="1.0" encoding="UTF-8" ?>
<!DOCTYPE svg PUBLIC "-//W3C//DTD SVG 1.1//EN" "http://www.w3.org/Graphics/SVG/1.1/DTD/svg11.dtd">
<svg width="512pt" height="512pt" viewBox="0 0 512 512" version="1.1" xmlns="http://www.w3.org/2000/svg">

<g id="#663399ff">
<path fill="#663399" opacity="1.00" d=" M 5.39 59.39 C 8.48 48.92 19.23 41.94 29.94 42.04 C 150.29 42.05 270.65 42.04 391.00 42.04 C 395.13 42.12 399.34 41.69 403.41 42.64 C 412.93 44.49 421.00 52.33 423.13 61.81 C 424.14 65.79 423.72 69.94 423.80 74.00 C 423.83 113.66 423.74 153.32 423.84 192.98 C 443.91 193.03 463.98 192.97 484.06 193.01 C 496.94 193.34 507.64 205.34 507.73 218.01 C 507.77 296.02 507.74 374.03 507.74 452.04 C 507.67 460.19 503.79 468.34 497.00 472.98 C 492.45 476.38 486.65 477.76 481.05 477.82 C 358.35 477.78 235.65 477.83 112.96 477.80 C 102.58 477.62 92.58 470.58 89.39 460.62 C 87.46 455.98 88.06 450.89 88.00 446.00 C 88.00 406.33 88.01 366.67 87.99 327.00 C 67.97 326.93 47.95 327.05 27.93 326.94 C 15.06 326.46 3.99 314.95 4.01 302.07 C 4.02 226.38 4.02 150.69 4.02 75.00 C 4.09 69.78 3.46 64.37 5.39 59.39 M 20.92 66.97 C 20.82 75.38 20.89 83.79 20.93 92.20 C 149.61 92.27 278.30 92.27 406.98 92.19 C 407.01 84.11 407.00 76.03 407.02 67.95 C 407.28 63.15 403.09 58.18 398.05 58.93 C 275.02 58.98 151.99 58.93 28.97 58.95 C 24.62 58.62 20.64 62.65 20.92 66.97 M 20.92 109.02 C 20.89 116.12 20.78 123.22 21.01 130.32 C 28.32 123.46 35.45 116.36 42.30 109.04 C 35.18 108.95 28.05 109.00 20.92 109.02 M 66.26 109.05 C 55.20 120.48 43.57 131.36 32.70 142.96 C 41.41 143.04 50.11 143.02 58.82 142.97 C 65.69 136.11 72.56 129.27 79.40 122.39 C 83.84 118.04 89.26 114.48 92.55 109.10 C 83.79 108.91 75.03 108.99 66.26 109.05 M 116.31 109.06 C 106.23 119.40 95.94 129.52 85.73 139.73 C 84.80 140.65 84.12 141.77 83.46 142.90 C 92.20 143.09 100.95 143.02 109.69 142.94 C 120.74 131.48 132.32 120.55 143.29 109.02 C 134.29 109.00 125.30 108.93 116.31 109.06 M 167.19 109.04 C 156.10 120.42 144.43 131.26 133.65 142.93 C 142.35 143.06 151.05 143.02 159.75 142.95 C 170.82 131.53 182.44 120.63 193.33 109.04 C 184.62 108.96 175.90 108.98 167.19 109.04 M 217.30 109.06 C 207.23 119.40 196.89 129.48 186.69 139.69 C 185.72 140.60 185.03 141.75 184.44 142.93 C 192.91 143.07 201.38 143.00 209.84 142.97 C 215.15 137.92 219.99 132.36 225.68 127.73 C 229.82 123.86 233.69 119.70 237.76 115.75 C 239.82 113.65 242.20 111.75 243.58 109.08 C 234.82 108.94 226.06 108.96 217.30 109.06 M 267.31 109.06 C 257.24 119.40 246.94 129.52 236.73 139.73 C 235.80 140.65 235.11 141.77 234.47 142.90 C 243.21 143.08 251.95 143.03 260.70 142.94 C 271.74 131.48 283.32 120.55 294.29 109.02 C 285.30 109.00 276.30 108.94 267.31 109.06 M 318.22 109.04 C 307.15 120.45 295.50 131.30 284.68 142.95 C 293.37 143.05 302.07 143.02 310.76 142.96 C 321.85 131.54 333.47 120.65 344.35 109.05 C 335.64 108.96 326.93 108.97 318.22 109.04 M 368.30 109.06 C 357.27 120.52 345.65 131.42 334.72 142.98 C 342.81 143.01 350.91 143.03 359.00 142.99 C 361.67 143.17 363.53 140.95 365.28 139.27 C 375.20 129.11 385.49 119.30 395.28 109.02 C 386.29 109.00 377.29 108.94 368.30 109.06 M 403.21 124.23 C 398.26 129.27 393.27 134.27 388.23 139.21 C 387.11 140.27 386.23 141.54 385.50 142.89 C 392.66 143.13 399.83 142.95 406.99 142.99 C 406.96 135.80 407.09 128.61 406.92 121.42 C 405.55 122.16 404.29 123.11 403.21 124.23 M 20.96 159.02 C 20.82 206.69 20.90 254.36 20.91 302.03 C 20.63 306.37 24.62 310.39 28.97 310.09 C 48.64 310.13 68.31 310.12 87.98 310.09 C 88.04 279.04 87.96 247.99 88.02 216.95 C 88.33 204.41 99.35 193.19 111.94 192.99 C 210.29 193.00 308.64 193.01 406.99 192.99 C 406.86 181.75 407.31 170.48 406.76 159.25 C 401.52 158.78 396.25 159.07 391.00 159.00 C 267.65 159.01 144.30 158.98 20.96 159.02 M 110.31 210.16 C 106.67 211.37 104.41 215.19 104.84 218.96 C 104.87 296.98 104.82 375.00 104.87 453.02 C 104.47 457.91 109.53 461.16 113.94 461.02 C 236.64 460.99 359.34 460.99 482.04 461.02 C 486.79 461.31 491.27 456.76 491.02 452.04 C 490.99 374.34 490.99 296.64 491.02 218.95 C 491.11 214.52 487.92 209.48 483.01 209.80 C 360.34 209.69 237.65 209.81 114.98 209.75 C 113.42 209.80 111.82 209.69 110.31 210.16 Z" />
<path fill="#663399" opacity="1.00" d=" M 136.43 226.53 C 146.60 225.91 156.82 226.46 167.01 226.26 C 172.22 226.08 177.84 226.58 182.14 229.85 C 186.43 233.13 188.78 238.61 188.80 243.95 C 188.83 254.31 188.75 264.68 188.83 275.05 C 189.08 281.41 186.03 288.20 180.16 291.15 C 174.29 294.62 167.37 292.70 160.98 292.96 C 156.92 292.82 152.90 294.07 148.86 293.20 C 141.79 292.17 133.25 295.14 127.62 289.35 C 121.89 285.13 121.29 277.57 121.35 271.03 C 121.50 261.51 121.09 251.97 121.56 242.47 C 121.76 234.42 128.46 227.34 136.43 226.53 M 138.00 243.01 C 138.15 254.25 137.67 265.51 138.26 276.74 C 149.49 277.33 160.75 276.85 171.99 276.99 C 172.01 265.66 172.01 254.33 171.99 243.01 C 160.66 242.99 149.33 242.99 138.00 243.01 Z" />
<path fill="#663399" opacity="1.00" d=" M 146.35 318.53 C 150.92 318.13 155.17 322.40 155.00 326.96 C 155.07 329.66 155.05 332.37 155.01 335.07 C 155.54 339.34 151.62 342.78 147.81 343.74 C 144.58 343.87 141.04 342.50 139.43 339.54 C 137.69 335.62 138.23 331.22 138.25 327.07 C 138.41 322.63 141.86 318.84 146.35 318.53 Z" />
<path fill="#663399" opacity="1.00" d=" M 247.18 318.68 C 251.70 318.48 256.14 322.26 255.88 326.96 C 255.93 332.45 257.21 340.29 250.86 342.88 C 245.50 345.87 238.83 340.81 239.02 335.04 C 239.20 330.26 237.74 324.40 241.74 320.76 C 243.08 319.15 245.21 318.84 247.18 318.68 Z" />
<path fill="#663399" opacity="1.00" d=" M 347.32 318.53 C 349.73 318.38 352.23 319.41 354.13 320.88 C 357.43 325.06 356.83 330.78 356.61 335.77 C 356.01 338.79 354.38 342.28 351.12 343.09 C 346.81 345.13 341.59 342.09 340.14 337.82 C 339.86 333.29 339.85 328.71 340.15 324.18 C 341.32 321.28 344.17 318.94 347.32 318.53 Z" />
<path fill="#663399" opacity="1.00" d=" M 448.34 318.53 C 452.76 318.23 457.64 322.26 457.02 326.94 C 456.98 330.58 457.19 334.24 456.85 337.87 C 455.24 344.60 444.40 345.88 441.66 339.34 C 439.72 334.32 439.75 328.46 441.38 323.36 C 442.29 320.31 445.48 319.06 448.34 318.53 Z" />
<path fill="#663399" opacity="1.00" d=" M 176.41 319.36 C 179.96 318.54 184.88 318.40 186.98 321.99 C 189.60 325.80 188.75 330.60 188.76 334.94 C 188.67 338.74 186.34 342.68 182.35 343.35 C 178.35 344.97 174.46 341.77 172.42 338.57 C 171.60 334.77 172.07 330.82 172.00 326.96 C 171.88 323.84 173.87 320.99 176.41 319.36 Z" />
<path fill="#663399" opacity="1.00" d=" M 210.33 319.37 C 214.78 317.77 220.22 319.50 221.85 324.18 C 222.15 328.71 222.13 333.29 221.86 337.83 C 220.40 342.09 215.19 345.14 210.88 343.09 C 206.20 341.80 205.28 336.16 205.27 332.01 C 205.18 327.51 205.37 321.27 210.33 319.37 Z" />
<path fill="#663399" opacity="1.00" d=" M 277.40 319.32 C 282.63 317.25 289.76 320.82 289.02 326.94 C 288.51 331.63 290.45 337.19 287.15 341.14 C 284.80 342.86 281.65 344.71 278.72 343.30 C 275.88 342.39 273.13 340.19 273.04 336.99 C 272.96 332.72 272.83 328.43 273.13 324.17 C 273.77 322.07 275.76 320.66 277.40 319.32 Z" />
<path fill="#663399" opacity="1.00" d=" M 311.32 319.30 C 314.48 318.69 318.60 318.29 320.76 321.25 C 324.22 324.98 322.75 330.44 322.99 335.03 C 323.14 340.09 317.73 345.20 312.66 343.35 C 308.41 342.61 305.69 338.21 306.11 334.06 C 306.05 328.90 305.28 321.47 311.32 319.30 Z" />
<path fill="#663399" opacity="1.00" d=" M 378.33 319.35 C 381.47 318.69 385.66 318.22 387.78 321.23 C 391.29 324.98 389.69 330.46 390.01 335.07 C 390.56 339.35 386.61 342.78 382.80 343.77 C 379.58 343.88 376.05 342.47 374.44 339.54 C 372.76 335.92 373.20 331.85 373.22 327.98 C 373.26 324.55 374.86 320.58 378.33 319.35 Z" />
<path fill="#663399" opacity="1.00" d=" M 411.41 319.36 C 415.41 318.26 421.01 318.76 422.83 323.13 C 424.35 327.43 423.95 332.16 423.52 336.62 C 423.03 342.10 416.01 345.63 411.39 342.64 C 409.27 341.04 406.75 339.01 407.03 336.05 C 407.12 330.34 405.44 322.79 411.41 319.36 Z" />
<path fill="#663399" opacity="1.00" d=" M 356.73 368.74 C 364.24 363.22 373.54 360.41 382.83 360.36 C 391.40 360.97 399.99 363.56 406.78 368.97 C 420.94 357.92 442.18 357.64 456.57 368.43 C 467.93 376.33 474.70 390.26 474.01 404.07 C 473.68 412.78 470.33 421.19 465.11 428.12 C 457.00 438.25 444.05 444.72 430.98 444.04 C 422.30 444.23 413.97 440.68 406.94 435.81 C 403.57 437.86 400.26 440.07 396.56 441.48 C 383.12 446.63 367.07 444.18 355.81 435.20 C 352.02 431.66 348.12 428.08 345.49 423.54 C 340.51 414.78 338.81 404.32 340.50 394.41 C 342.56 384.29 348.22 374.72 356.73 368.74 M 378.31 377.27 C 367.35 378.75 357.99 387.94 356.83 399.00 C 356.59 403.00 356.52 407.17 358.02 410.96 C 361.44 420.33 370.86 427.56 381.00 427.29 C 388.46 427.77 395.89 424.33 400.77 418.76 C 403.73 415.27 409.50 414.92 412.68 418.29 C 417.56 423.67 424.53 427.80 432.00 427.30 C 438.45 427.63 445.02 425.17 449.42 420.40 C 457.16 413.46 459.47 401.31 455.08 391.95 C 452.16 385.14 445.89 380.11 438.85 378.05 C 432.01 375.75 424.31 377.46 418.37 381.32 C 414.73 383.96 411.93 388.50 407.00 388.76 C 400.91 388.50 398.27 381.98 393.05 379.88 C 388.45 377.94 383.34 376.27 378.31 377.27 Z" />
<path fill="#663399" opacity="1.00" d=" M 144.37 394.36 C 145.84 393.84 147.43 394.03 148.97 393.97 C 159.32 394.05 169.68 393.97 180.03 394.00 C 183.17 393.85 186.00 395.84 187.66 398.38 C 189.93 401.86 188.39 406.86 185.16 409.19 C 181.82 411.23 177.74 410.81 174.00 410.83 C 165.02 410.68 156.04 410.94 147.07 410.75 C 143.28 410.65 139.30 408.33 138.66 404.35 C 137.04 400.14 140.45 395.68 144.37 394.36 Z" />
<path fill="#663399" opacity="1.00" d=" M 211.36 394.36 C 212.83 393.83 214.43 394.03 215.96 393.97 C 226.33 394.04 236.70 393.98 247.07 393.99 C 253.03 393.30 258.00 400.77 254.97 405.98 C 253.43 409.42 249.55 410.81 246.01 410.80 C 235.67 410.84 225.33 410.77 214.99 410.82 C 211.12 410.92 206.94 408.95 206.07 404.87 C 204.19 400.65 207.13 395.68 211.36 394.36 Z" />
<path fill="#663399" opacity="1.00" d=" M 145.44 427.52 C 160.60 427.01 175.82 427.45 191.00 427.31 C 226.00 427.29 261.00 427.32 295.99 427.29 C 298.81 427.34 301.91 427.91 303.80 430.21 C 308.69 434.35 305.42 443.72 298.97 443.96 C 247.97 444.05 196.96 443.98 145.95 444.00 C 142.96 444.35 140.99 441.69 139.35 439.61 C 136.30 434.83 140.06 428.32 145.44 427.52 Z" />
</g>
</svg>
