<?xml version="1.0" encoding="UTF-8" ?>
<!DOCTYPE svg PUBLIC "-//W3C//DTD SVG 1.1//EN" "http://www.w3.org/Graphics/SVG/1.1/DTD/svg11.dtd">
<svg width="512pt" height="512pt" viewBox="0 0 512 512" version="1.1" xmlns="http://www.w3.org/2000/svg">
<g id="#ffffffff">
</g>
<g id="#33D47Cff">
<path fill="#33D47C" opacity="1.00" d=" M 201.51 5.70 C 208.26 4.51 215.17 5.52 221.92 4.31 C 233.59 3.98 245.29 3.88 256.96 4.39 C 263.30 5.54 269.81 4.49 276.14 5.78 C 287.32 6.43 298.43 7.98 309.49 9.72 C 314.81 10.77 320.19 11.52 325.48 12.71 C 326.83 13.03 328.18 13.34 329.52 13.72 C 336.26 14.97 342.91 16.72 349.47 18.69 C 353.87 19.76 358.15 21.28 362.44 22.72 C 363.45 23.04 364.45 23.37 365.45 23.71 C 369.15 24.95 372.88 26.15 376.46 27.70 C 381.21 29.47 385.89 31.44 390.43 33.71 C 395.35 35.44 399.83 38.17 404.36 40.71 C 417.41 47.77 429.53 56.51 440.21 66.81 C 453.12 80.15 463.72 97.00 464.99 115.95 C 465.03 130.54 464.98 145.14 465.00 159.73 C 477.75 171.39 490.08 184.68 495.32 201.55 C 497.91 209.07 499.17 217.07 498.97 225.02 C 498.94 246.69 498.96 268.35 498.96 290.01 C 498.67 306.35 492.10 322.17 481.77 334.72 C 476.89 341.19 470.80 346.59 465.00 352.22 C 465.01 366.15 464.98 380.08 465.02 394.02 C 465.10 399.28 463.94 404.48 462.31 409.46 C 461.99 410.45 461.66 411.45 461.34 412.44 C 460.36 415.24 459.04 417.89 457.74 420.55 C 451.85 433.30 441.75 443.32 431.54 452.68 C 418.08 463.40 403.33 472.64 387.44 479.30 C 385.15 480.38 382.85 481.44 380.47 482.31 C 378.82 483.02 377.16 483.69 375.47 484.30 C 371.88 485.86 368.15 487.05 364.44 488.27 C 363.44 488.62 362.44 488.95 361.45 489.29 C 360.45 489.62 359.45 489.95 358.45 490.28 C 349.92 493.02 341.27 495.48 332.50 497.29 C 316.05 501.28 299.24 503.61 282.45 505.48 C 278.14 506.23 273.73 505.68 269.43 506.46 C 263.65 507.37 257.78 506.75 251.97 507.11 C 244.71 508.13 237.33 507.89 230.03 507.59 C 222.24 506.31 214.29 507.66 206.50 506.29 C 185.65 505.04 164.93 501.82 144.53 497.26 C 139.52 496.01 134.45 494.93 129.54 493.30 C 116.88 490.02 104.49 485.65 92.56 480.31 C 84.99 477.16 77.57 473.51 70.54 469.29 C 60.59 464.02 51.51 457.20 42.98 449.87 C 37.47 445.47 32.94 440.01 28.65 434.46 C 23.03 427.27 18.40 419.21 15.70 410.46 C 15.36 409.46 15.04 408.47 14.72 407.47 C 14.34 406.14 14.01 404.80 13.68 403.47 C 12.93 398.69 12.10 393.88 12.19 389.03 C 12.25 366.34 12.14 343.65 12.24 320.96 C 12.86 312.95 14.35 304.89 17.67 297.53 C 23.36 282.79 34.61 271.25 46.00 260.72 C 46.00 257.33 46.00 253.95 46.00 250.57 C 35.12 241.92 25.76 230.99 19.72 218.41 C 14.72 209.46 12.74 199.15 12.21 189.00 C 12.20 166.32 12.18 143.64 12.22 120.96 C 12.64 113.33 13.79 105.63 16.66 98.51 C 17.28 96.83 17.96 95.18 18.65 93.53 C 19.41 91.78 20.35 90.11 21.26 88.44 C 29.14 73.69 41.57 61.87 54.99 52.13 C 65.91 44.67 77.29 37.69 89.57 32.71 C 95.98 29.47 102.70 26.91 109.52 24.72 C 113.40 23.03 117.43 21.71 121.54 20.71 C 126.12 19.12 130.77 17.76 135.49 16.72 C 139.49 15.65 143.51 14.68 147.53 13.72 C 165.31 9.80 183.37 7.15 201.51 5.70 M 166.49 27.25 C 149.54 30.41 132.81 34.74 116.47 40.27 C 113.87 41.43 111.18 42.37 108.48 43.27 C 106.83 44.00 105.15 44.68 103.45 45.29 C 101.15 46.38 98.83 47.45 96.42 48.27 C 75.41 58.18 54.42 70.45 40.47 89.54 C 36.84 93.98 34.78 99.39 32.17 104.44 C 30.46 110.46 28.64 116.62 28.97 122.95 C 29.00 126.18 29.93 129.30 30.22 132.51 C 31.27 135.52 32.29 138.54 33.22 141.59 C 37.11 149.35 42.02 156.63 48.18 162.78 C 64.05 179.20 84.70 189.85 105.46 198.75 C 108.17 199.61 110.86 200.57 113.46 201.75 C 118.45 203.46 123.48 205.06 128.46 206.79 C 135.80 208.84 143.14 210.86 150.52 212.74 C 169.51 216.64 188.68 220.06 208.05 221.09 C 223.63 222.74 239.35 222.04 255.00 222.03 C 261.03 222.30 266.94 220.79 272.98 221.00 C 290.96 219.28 308.91 216.82 326.54 212.76 C 329.19 212.05 331.87 211.39 334.56 210.76 C 339.58 209.52 344.54 208.04 349.54 206.73 C 360.42 203.29 371.08 199.19 381.58 194.74 C 386.58 192.33 391.53 189.82 396.49 187.32 C 407.98 180.55 419.21 173.11 428.80 163.76 C 435.21 156.86 440.85 149.17 444.79 140.58 C 449.14 129.46 449.70 116.79 445.81 105.47 C 442.76 97.43 438.33 89.87 432.36 83.65 C 421.50 70.84 407.05 61.76 392.49 53.69 C 389.52 52.21 386.56 50.73 383.58 49.29 C 374.36 45.28 364.96 41.71 355.51 38.29 C 345.88 35.47 336.27 32.58 326.50 30.27 C 324.82 29.98 323.14 29.69 321.49 29.28 C 303.19 25.61 284.65 22.68 266.00 21.87 C 251.74 20.18 237.31 21.26 222.97 20.98 C 204.08 22.12 185.14 23.74 166.49 27.25 M 29.01 166.38 C 29.32 177.43 28.07 188.60 30.20 199.51 C 31.40 203.24 32.81 206.88 34.26 210.52 C 37.52 216.40 41.11 222.16 45.98 226.87 C 46.02 212.36 45.99 197.85 46.00 183.34 C 39.52 178.61 33.91 172.72 29.01 166.38 M 441.67 174.66 C 438.65 177.85 434.97 180.30 431.88 183.42 C 431.87 197.91 431.88 212.40 431.88 226.89 C 437.35 221.33 441.43 214.58 444.79 207.58 C 447.55 200.04 449.03 192.01 448.91 184.00 C 447.71 178.37 449.73 172.73 448.82 167.06 C 445.97 169.13 444.13 172.19 441.67 174.66 M 465.01 183.44 C 464.79 188.48 465.58 193.64 464.31 198.59 C 463.99 201.61 463.34 204.59 462.34 207.46 C 461.99 208.46 461.63 209.45 461.28 210.45 C 460.97 211.45 460.66 212.46 460.34 213.46 C 456.49 223.93 449.44 232.79 442.22 241.13 C 431.47 252.09 418.96 261.29 405.53 268.72 C 400.06 271.98 394.40 275.02 388.45 277.31 C 386.15 278.40 383.85 279.48 381.47 280.34 C 379.82 281.05 378.16 281.73 376.48 282.33 C 374.83 283.04 373.17 283.71 371.48 284.31 C 362.07 288.05 352.31 290.89 342.49 293.31 C 339.89 294.20 337.23 294.87 334.52 295.30 C 333.19 295.68 331.84 296.00 330.50 296.32 C 327.19 297.04 323.87 297.72 320.53 298.30 C 301.76 302.28 282.61 304.29 263.49 305.29 C 256.70 306.28 249.81 305.89 242.98 306.00 C 233.33 305.84 223.61 306.51 214.04 305.05 C 206.95 305.33 199.98 304.18 192.94 303.69 C 183.09 302.35 173.15 301.42 163.43 299.27 C 159.75 298.83 156.12 298.09 152.49 297.32 C 151.15 297.00 149.81 296.67 148.49 296.29 C 144.10 295.58 139.82 294.40 135.53 293.31 C 129.83 291.75 124.11 290.24 118.55 288.24 C 116.04 287.43 113.50 286.77 110.93 286.21 C 112.12 286.90 113.31 287.61 114.51 288.30 C 119.48 290.78 124.41 293.31 129.42 295.71 C 131.84 296.52 134.15 297.60 136.44 298.70 C 138.15 299.30 139.82 299.98 141.48 300.72 C 144.19 301.60 146.88 302.53 149.48 303.71 C 150.47 304.03 151.46 304.36 152.45 304.71 C 153.45 305.03 154.45 305.36 155.45 305.71 C 156.46 306.02 157.46 306.35 158.46 306.70 C 161.87 307.47 165.18 308.59 168.48 309.72 C 169.82 310.02 171.18 310.32 172.51 310.69 C 173.85 311.01 175.19 311.33 176.52 311.71 C 177.85 312.02 179.19 312.33 180.52 312.70 C 181.85 313.01 183.19 313.33 184.51 313.72 C 193.51 315.52 202.53 317.22 211.59 318.74 C 224.04 320.25 236.50 321.98 249.06 322.26 C 256.96 323.58 264.99 322.79 272.96 323.00 C 280.63 322.81 288.37 323.56 295.97 322.24 C 317.35 321.47 338.55 318.04 359.49 313.73 C 363.47 312.66 367.48 311.67 371.50 310.74 C 373.22 310.23 374.97 309.81 376.69 309.29 C 377.14 309.16 378.05 308.89 378.50 308.76 C 380.80 307.95 383.15 307.25 385.53 306.70 C 386.53 306.36 387.53 306.03 388.55 305.72 C 389.54 305.37 390.54 305.03 391.55 304.71 C 392.53 304.36 393.53 304.03 394.53 303.72 C 397.13 302.55 399.82 301.60 402.52 300.72 C 404.17 299.98 405.85 299.31 407.56 298.70 C 409.85 297.60 412.16 296.53 414.57 295.72 C 420.26 293.01 425.87 290.15 431.48 287.30 C 433.48 286.06 435.48 284.80 437.57 283.70 C 453.83 273.38 469.48 260.41 477.75 242.59 C 478.33 240.85 479.01 239.16 479.75 237.49 C 483.24 226.75 482.87 214.96 478.80 204.42 C 475.19 196.86 471.34 189.11 465.01 183.44 M 62.80 195.73 C 62.95 211.34 62.48 226.99 63.02 242.58 C 68.15 246.55 73.83 249.73 79.25 253.29 C 79.25 237.86 79.33 222.42 79.23 207.00 C 79.63 205.18 77.74 204.55 76.60 203.65 C 73.80 202.42 71.06 201.03 68.53 199.33 C 66.55 198.23 64.64 197.03 62.80 195.73 M 398.00 205.36 C 398.00 221.32 398.00 237.27 398.00 253.23 C 404.00 250.20 409.29 246.01 415.00 242.52 C 415.01 226.95 414.99 211.39 415.01 195.82 C 409.61 199.45 403.94 202.68 398.00 205.36 M 96.06 213.42 C 95.92 229.51 96.04 245.61 96.00 261.70 C 96.62 261.96 97.85 262.46 98.46 262.72 C 103.33 264.54 108.07 266.68 112.98 268.39 C 113.03 252.02 112.99 235.65 113.00 219.27 C 111.84 218.98 110.70 218.66 109.55 218.33 C 105.01 216.82 100.66 214.77 96.06 213.42 M 373.47 216.30 C 370.68 217.55 367.78 218.53 364.84 219.35 C 364.75 235.69 364.82 252.03 364.80 268.37 C 366.37 267.82 367.94 267.26 369.52 266.73 C 371.17 265.99 372.85 265.31 374.57 264.71 C 376.79 263.66 379.02 262.62 381.27 261.61 C 381.30 245.52 381.25 229.43 381.29 213.33 C 378.64 214.21 376.09 215.33 373.47 216.30 M 129.86 224.78 C 129.86 241.12 129.87 257.46 129.85 273.80 C 130.50 274.06 131.80 274.57 132.45 274.83 C 135.83 275.80 139.28 276.60 142.58 277.84 C 144.04 278.00 145.51 278.14 146.98 278.28 C 147.00 272.84 147.25 267.36 146.43 261.96 C 146.94 256.38 147.36 250.75 146.79 245.15 C 145.85 240.08 147.51 235.01 147.03 229.90 C 145.90 229.33 144.76 228.76 143.62 228.20 C 142.24 227.94 140.87 227.67 139.51 227.32 C 136.28 226.53 133.06 225.68 129.86 224.78 M 334.47 228.24 C 333.32 228.58 332.16 228.91 331.00 229.23 C 331.02 245.63 330.96 262.04 331.03 278.45 C 334.91 277.75 338.69 276.62 342.53 275.73 C 343.53 275.39 344.53 275.08 345.55 274.78 C 346.16 274.53 347.39 274.03 348.00 273.78 C 348.00 257.45 348.01 241.12 348.00 224.80 C 343.52 226.05 339.01 227.21 334.47 228.24 M 163.02 232.67 C 162.97 249.05 163.01 265.44 163.00 281.82 C 163.62 282.07 164.85 282.57 165.46 282.82 C 170.34 283.52 175.17 284.55 180.06 285.21 C 180.07 268.53 180.06 251.85 180.06 235.18 C 174.41 234.16 168.74 233.23 163.02 232.67 M 297.72 235.20 C 297.75 251.87 297.72 268.55 297.74 285.22 C 303.21 284.10 308.78 283.46 314.24 282.29 C 314.14 265.74 314.26 249.18 314.19 232.63 C 308.69 233.42 303.18 234.15 297.72 235.20 M 196.94 236.82 C 196.93 253.55 196.94 270.27 196.94 286.99 C 202.55 288.15 208.28 288.19 213.99 288.32 C 214.01 272.52 214.00 256.72 214.00 240.93 C 214.25 239.63 213.58 237.90 212.01 238.06 C 206.96 238.07 201.93 237.64 196.94 236.82 M 264.00 238.01 C 264.00 255.03 264.00 272.04 264.00 289.06 C 269.55 287.40 275.46 288.68 281.00 286.97 C 280.99 270.26 281.01 253.55 280.99 236.84 C 275.34 237.46 269.71 238.32 264.00 238.01 M 230.68 238.98 C 230.64 255.71 230.69 272.43 230.65 289.16 C 236.15 289.26 241.65 289.27 247.15 289.15 C 247.11 272.42 247.18 255.70 247.12 238.97 C 241.63 239.01 236.15 239.01 230.68 238.98 M 62.85 267.22 C 62.79 276.48 62.65 285.76 62.96 295.02 C 64.43 307.45 71.29 318.43 79.19 327.84 C 79.36 313.38 79.23 298.91 79.25 284.45 C 73.50 279.00 67.56 273.64 62.85 267.22 M 465.00 285.18 C 465.14 299.45 464.71 313.74 465.23 328.01 C 471.13 322.27 475.30 314.99 478.76 307.58 C 479.38 305.54 480.04 303.52 480.76 301.52 C 481.28 298.35 482.15 295.21 482.06 291.98 C 482.04 283.78 482.19 275.58 481.98 267.38 C 477.14 274.05 470.86 279.45 465.00 285.18 M 32.20 305.44 C 30.02 312.52 28.43 319.94 29.12 327.39 C 29.92 330.74 30.40 334.15 31.21 337.50 C 34.44 346.02 38.88 354.21 45.19 360.85 C 59.67 377.67 79.58 388.45 99.42 397.72 C 101.13 398.30 102.81 398.97 104.47 399.69 C 106.16 400.31 107.83 400.99 109.47 401.73 C 140.70 413.19 173.59 420.12 206.75 422.44 C 214.09 423.67 221.61 422.54 228.94 423.89 C 235.64 424.10 242.36 424.06 249.06 423.89 C 256.38 422.61 263.88 423.60 271.21 422.46 C 287.44 421.36 303.60 419.03 319.54 415.76 C 322.84 415.01 326.15 414.32 329.48 413.73 C 330.81 413.33 332.16 413.01 333.52 412.70 C 339.49 410.92 345.55 409.42 351.54 407.71 C 352.54 407.36 353.54 407.03 354.55 406.72 C 355.54 406.37 356.54 406.04 357.55 405.72 C 358.53 405.37 359.52 405.04 360.52 404.72 C 366.53 402.37 372.57 400.11 378.57 397.74 C 385.00 394.66 391.39 391.52 397.64 388.09 C 386.34 391.46 375.03 394.87 363.48 397.27 C 356.52 398.70 349.57 400.27 342.53 401.26 C 326.41 403.69 310.18 405.80 293.87 406.12 C 283.99 407.45 273.97 406.84 264.03 406.90 C 257.31 407.09 250.69 405.59 243.96 405.97 C 223.00 404.48 202.06 401.89 181.53 397.26 C 168.68 394.45 156.02 390.80 143.54 386.62 C 142.54 386.17 141.55 385.71 140.56 385.26 C 135.43 383.62 130.43 381.60 125.56 379.30 C 109.14 372.51 93.86 363.13 79.96 352.08 C 67.85 341.30 56.33 328.98 50.64 313.49 C 49.31 310.27 48.49 306.88 47.67 303.50 C 45.95 297.23 45.84 290.74 45.98 284.30 C 39.96 290.31 35.70 297.75 32.20 305.44 M 96.00 296.71 C 95.99 312.08 96.02 327.45 95.98 342.82 C 101.40 346.78 106.90 350.71 112.96 353.65 C 113.05 337.89 112.97 322.13 113.00 306.37 C 111.48 305.49 109.99 304.57 108.47 303.70 C 104.14 301.68 100.19 298.99 96.00 296.71 M 438.53 302.73 C 436.35 304.02 434.16 305.31 431.89 306.44 C 431.87 322.36 431.87 338.29 431.89 354.22 C 437.63 350.48 443.60 347.06 449.01 342.84 C 448.89 327.64 449.19 312.44 448.86 297.25 C 445.16 298.58 442.02 300.98 438.53 302.73 M 129.85 313.89 C 129.90 330.13 129.80 346.37 129.90 362.61 C 132.50 363.41 134.99 364.53 137.44 365.71 C 139.15 366.31 140.83 366.99 142.48 367.75 C 144.04 368.25 145.59 368.79 147.15 369.30 C 147.11 366.05 146.08 362.84 146.57 359.59 C 147.46 353.44 146.99 347.20 146.43 341.05 C 147.33 334.14 147.32 327.10 146.16 320.22 C 143.60 319.27 141.03 318.37 138.53 317.28 C 135.57 316.32 132.65 315.26 129.85 313.89 M 409.47 316.33 C 406.84 317.45 404.15 318.41 401.41 319.23 C 400.27 319.79 399.12 320.35 397.99 320.92 C 398.02 337.04 397.97 353.16 398.02 369.27 C 400.53 368.43 403.03 367.55 405.57 366.76 C 408.63 365.22 411.72 363.67 415.00 362.63 C 415.01 346.41 415.00 330.18 415.01 313.96 C 413.20 314.84 411.36 315.64 409.47 316.33 M 163.03 325.64 C 162.95 341.79 163.03 357.95 162.99 374.11 C 164.12 374.67 165.26 375.22 166.39 375.79 C 171.00 376.76 175.45 378.37 180.06 379.33 C 180.07 363.87 180.04 348.41 180.09 332.95 C 179.98 331.64 180.43 329.77 178.73 329.33 C 175.96 328.76 173.18 328.23 170.51 327.28 C 168.02 326.70 165.55 326.05 163.03 325.64 M 367.46 329.19 C 366.79 329.43 365.46 329.89 364.79 330.12 C 364.81 346.53 364.79 362.94 364.80 379.35 C 369.40 378.30 373.98 377.12 378.53 375.83 C 379.22 375.55 380.61 374.97 381.30 374.68 C 381.22 358.38 381.35 342.07 381.24 325.77 C 376.67 327.01 372.09 328.21 367.46 329.19 M 196.94 333.11 C 196.92 349.71 196.95 366.31 196.93 382.91 C 202.41 384.22 208.03 384.77 213.54 385.93 C 214.20 382.33 214.00 378.66 214.00 375.03 C 213.99 362.03 214.00 349.03 214.00 336.04 C 208.37 334.75 202.56 334.46 196.94 333.11 M 331.00 336.00 C 331.01 352.74 330.98 369.47 331.02 386.20 C 333.51 385.70 336.00 385.13 338.52 384.73 C 341.67 384.11 344.87 383.69 348.00 382.93 C 348.01 366.33 347.99 349.72 348.01 333.12 C 342.40 334.44 336.62 334.78 331.00 336.00 M 230.68 337.90 C 230.62 354.55 230.71 371.20 230.64 387.85 C 236.13 388.52 241.60 389.28 247.15 389.18 C 247.11 372.47 247.17 355.77 247.12 339.07 C 241.61 338.99 236.21 337.68 230.68 337.90 M 297.73 339.09 C 297.75 355.78 297.72 372.46 297.74 389.15 C 303.28 389.29 308.74 388.53 314.22 387.87 C 314.19 371.21 314.21 354.56 314.21 337.90 C 308.67 337.68 303.26 339.05 297.73 339.09 M 264.00 339.78 C 264.00 356.52 264.00 373.25 264.00 389.98 C 269.67 390.11 275.33 390.09 281.00 389.98 C 281.00 373.24 281.01 356.51 280.99 339.77 C 275.33 339.85 269.66 339.94 264.00 339.78 M 29.00 368.31 C 29.03 376.55 28.94 384.79 29.02 393.03 C 29.45 397.98 30.79 402.81 32.18 407.56 C 35.79 415.20 39.77 422.88 45.99 428.76 C 46.02 414.29 45.99 399.82 46.00 385.36 C 42.27 381.34 37.49 378.43 34.16 374.03 C 32.57 372.01 30.78 370.16 29.00 368.31 M 431.87 385.31 C 431.90 399.81 431.84 414.31 431.90 428.82 C 436.65 423.69 440.40 417.75 443.75 411.64 C 444.33 409.89 445.01 408.19 445.79 406.53 C 448.10 399.26 449.21 391.53 448.89 383.92 C 447.70 378.65 449.69 373.36 448.80 368.05 C 443.50 374.13 437.80 379.85 431.87 385.31 M 62.79 397.63 C 62.79 412.99 62.81 428.35 62.78 443.72 C 67.77 448.08 73.58 451.33 79.26 454.71 C 79.27 438.87 79.27 423.03 79.26 407.19 C 76.63 405.75 74.03 404.28 71.47 402.72 C 68.45 401.24 65.64 399.40 62.79 397.63 M 398.10 407.25 C 397.88 423.02 398.01 438.81 398.05 454.59 C 404.13 451.74 409.61 447.78 415.02 443.84 C 414.94 428.36 415.10 412.87 414.93 397.39 C 409.52 401.02 403.63 403.86 398.10 407.25 M 96.03 414.69 C 95.99 430.43 95.97 446.18 96.03 461.93 C 95.96 463.60 98.26 463.87 99.31 464.78 C 102.78 465.85 106.11 467.31 109.45 468.73 C 110.64 469.14 111.83 469.58 113.01 470.03 C 112.99 453.78 113.00 437.53 113.00 421.28 C 112.39 421.02 111.16 420.51 110.55 420.25 C 107.82 419.41 105.14 418.45 102.53 417.31 C 100.33 416.52 98.19 415.57 96.03 414.69 M 374.48 417.32 C 371.39 418.89 367.76 419.28 364.93 421.29 C 364.62 437.55 364.90 453.82 364.80 470.09 C 366.03 469.60 367.27 469.13 368.52 468.69 C 370.17 467.96 371.85 467.28 373.56 466.69 C 376.03 465.49 378.55 464.35 381.20 463.56 C 381.38 447.24 381.24 430.91 381.27 414.58 C 379.00 415.49 376.77 416.50 374.48 417.32 M 331.55 430.56 C 330.55 431.76 331.18 433.56 330.98 435.01 C 331.03 450.06 330.98 465.12 331.00 480.18 C 336.69 478.79 342.29 477.03 348.00 475.73 C 348.01 459.16 347.98 442.58 348.01 426.01 C 342.69 428.10 336.98 428.87 331.55 430.56 M 129.86 426.58 C 129.89 442.96 129.83 459.35 129.88 475.73 C 133.43 476.65 137.00 477.55 140.48 478.73 C 142.30 479.13 144.09 479.69 145.93 480.01 C 146.75 479.22 147.11 478.26 146.99 477.13 C 147.19 471.78 146.97 466.42 146.43 461.11 C 147.27 454.74 147.28 448.27 146.42 441.91 C 146.57 438.34 147.40 434.79 146.94 431.21 C 145.50 429.78 143.31 429.90 141.51 429.26 C 137.55 428.68 133.73 427.52 129.86 426.58 M 163.02 433.79 C 162.97 450.44 163.01 467.09 163.00 483.75 C 164.53 484.03 166.06 484.33 167.56 484.74 C 171.74 485.33 175.93 485.94 180.06 486.85 C 180.06 469.94 180.08 453.02 180.04 436.11 C 174.28 436.10 168.70 434.54 163.02 433.79 M 297.79 436.13 C 297.64 452.90 297.80 469.66 297.71 486.43 C 303.26 485.91 308.73 484.82 314.21 483.79 C 314.18 467.12 314.25 450.46 314.18 433.79 C 308.75 434.79 303.33 436.01 297.79 436.13 M 196.93 438.73 C 196.95 455.45 196.92 472.18 196.94 488.91 C 202.67 488.91 208.26 490.48 214.00 490.02 C 214.00 473.37 214.00 456.72 214.00 440.07 C 208.36 439.04 202.65 438.89 196.93 438.73 M 264.00 439.96 C 264.00 456.67 264.00 473.37 264.00 490.07 C 269.70 490.17 275.29 488.74 281.00 488.94 C 281.00 472.20 281.00 455.47 281.00 438.73 C 275.30 438.83 269.63 439.12 264.00 439.96 M 230.74 439.82 C 230.60 456.87 230.64 473.93 230.72 490.99 C 236.19 491.01 241.65 491.00 247.12 491.00 C 247.13 473.94 247.20 456.89 247.08 439.84 C 241.66 440.90 236.16 440.85 230.74 439.82 Z" />
<path fill="#33D47C" opacity="1.00" d=" M 208.51 38.71 C 218.96 37.48 229.51 38.20 240.01 38.00 C 249.69 38.19 259.44 37.47 269.06 38.78 C 285.31 39.67 301.49 41.76 317.50 44.72 C 320.83 45.32 324.15 46.00 327.46 46.73 C 330.15 47.35 332.84 48.00 335.51 48.72 C 341.56 50.14 347.58 51.68 353.45 53.72 C 354.45 54.04 355.44 54.37 356.44 54.72 C 361.83 56.55 367.33 58.14 372.44 60.69 C 374.85 61.52 377.15 62.59 379.44 63.70 C 383.37 65.06 386.99 67.13 390.53 69.29 C 404.37 76.83 417.67 86.64 425.78 100.44 C 427.73 103.93 429.43 107.60 430.37 111.51 C 433.31 120.78 431.60 130.91 427.58 139.59 C 420.59 153.31 408.37 163.44 395.36 171.21 C 387.45 175.99 379.12 180.09 370.46 183.31 C 368.82 184.03 367.16 184.70 365.48 185.30 C 360.60 187.32 355.57 189.01 350.45 190.29 C 349.45 190.63 348.46 190.98 347.47 191.31 C 346.15 191.67 344.81 191.97 343.48 192.28 C 336.96 194.50 330.16 195.71 323.46 197.26 C 306.00 200.83 288.27 203.18 270.49 204.29 C 262.42 205.63 254.21 204.55 246.11 205.20 C 241.12 206.05 236.02 205.82 231.03 205.11 C 222.98 204.68 214.85 205.56 206.86 204.21 C 187.59 203.21 168.43 200.27 149.53 196.28 C 145.52 195.31 141.50 194.33 137.51 193.29 C 121.71 189.11 106.11 183.85 91.61 176.26 C 75.02 167.98 58.87 156.43 50.23 139.56 C 44.18 127.94 44.62 113.42 51.02 102.04 C 55.02 94.10 61.32 87.69 67.95 81.91 C 79.92 72.55 93.32 65.02 107.53 59.68 C 110.13 58.53 112.81 57.58 115.52 56.71 C 118.42 55.42 121.45 54.40 124.55 53.70 C 125.54 53.36 126.54 53.03 127.54 52.71 C 133.80 50.84 140.05 48.83 146.50 47.72 C 166.83 42.80 187.67 40.07 208.51 38.71 M 234.98 54.58 C 226.65 54.89 218.30 54.81 209.97 55.11 C 206.66 55.61 203.33 55.98 199.98 56.00 C 182.34 57.61 164.77 60.26 147.50 64.26 C 137.34 66.75 127.33 69.78 117.48 73.27 C 115.83 74.01 114.15 74.69 112.45 75.29 C 106.01 78.06 99.61 80.91 93.45 84.26 C 88.07 87.46 82.83 90.92 78.07 95.01 C 72.56 98.94 68.63 104.60 65.19 110.34 C 64.56 112.44 63.85 114.51 63.07 116.56 C 62.52 121.27 62.86 126.02 64.16 130.58 C 67.73 137.65 72.62 144.19 79.01 148.93 C 88.07 156.54 98.82 161.66 109.42 166.72 C 111.14 167.31 112.82 167.99 114.48 168.72 C 117.18 169.61 119.87 170.55 122.48 171.71 C 123.49 172.05 124.50 172.41 125.51 172.78 C 125.96 172.91 126.86 173.17 127.31 173.29 C 132.36 174.83 137.47 176.12 142.49 177.73 C 156.48 180.89 170.53 183.96 184.83 185.44 C 192.81 186.81 200.91 186.93 208.93 187.95 C 215.26 188.17 221.64 187.88 227.93 188.89 C 234.96 189.09 242.01 189.08 249.04 188.89 C 254.65 188.04 260.34 188.10 266.00 188.03 C 291.82 186.45 317.54 182.47 342.55 175.73 C 348.55 173.76 354.55 171.76 360.54 169.74 C 363.85 168.32 367.18 166.96 370.57 165.73 C 379.91 161.43 388.90 156.36 397.16 150.22 C 403.88 144.40 410.45 137.97 413.83 129.56 C 416.62 121.36 414.36 112.41 409.46 105.51 C 401.71 95.11 390.74 87.80 379.48 81.69 C 378.13 81.02 376.79 80.35 375.45 79.69 C 368.55 76.68 361.56 73.91 354.53 71.26 C 347.95 68.95 341.14 67.39 334.51 65.26 C 332.85 64.96 331.19 64.67 329.56 64.28 C 321.32 62.00 312.86 60.75 304.46 59.26 C 285.76 56.50 266.93 54.64 248.01 54.73 C 243.65 54.96 239.31 53.84 234.98 54.58 Z" />
</g>
</svg>