<?xml version="1.0" encoding="UTF-8" ?>
<!DOCTYPE svg PUBLIC "-//W3C//DTD SVG 1.1//EN" "http://www.w3.org/Graphics/SVG/1.1/DTD/svg11.dtd">
<svg width="512pt" height="512pt" viewBox="0 0 512 512" version="1.1" xmlns="http://www.w3.org/2000/svg">

<g id="#3A539Bff">
<path fill="#3A539B" opacity="1.00" d=" M 141.83 49.82 C 149.52 42.37 160.39 38.37 171.06 39.03 C 181.20 39.86 190.99 44.62 197.62 52.38 C 204.70 61.17 208.41 72.57 207.64 83.86 C 207.00 89.40 206.50 95.08 204.22 100.25 C 203.26 102.36 202.17 104.44 201.66 106.72 C 213.70 108.32 225.46 113.33 234.53 121.47 C 237.48 124.96 241.18 128.39 242.03 133.08 C 242.83 138.76 236.91 143.83 231.44 142.55 C 226.57 141.08 225.02 135.60 221.20 132.75 C 210.73 124.55 197.03 122.66 184.18 121.69 C 180.18 120.95 176.92 117.11 176.97 113.03 C 176.94 110.11 176.62 106.90 178.42 104.40 C 180.45 101.70 184.20 100.89 185.95 97.92 C 190.54 91.63 190.44 83.46 190.01 76.04 C 188.87 69.19 184.89 62.72 179.01 58.95 C 174.38 56.80 168.97 55.00 163.92 56.80 C 154.86 58.69 148.42 67.20 147.02 76.04 C 146.72 83.20 146.50 91.12 150.70 97.31 C 153.28 101.37 159.56 102.60 159.96 108.01 C 159.83 111.41 161.01 115.64 158.28 118.29 C 156.83 119.91 155.03 121.37 152.82 121.72 C 139.96 122.60 126.29 124.60 115.80 132.76 C 111.98 135.60 110.45 141.11 105.56 142.54 C 99.75 143.91 93.64 138.13 95.11 132.21 C 97.12 126.15 102.39 122.08 106.88 117.89 C 115.28 112.01 125.17 108.02 135.35 106.75 C 134.69 103.42 132.60 100.61 131.72 97.34 C 129.14 88.36 128.73 78.78 130.73 69.64 C 132.71 62.25 136.48 55.31 141.83 49.82 Z" />
<path fill="#3A539B" opacity="1.00" d=" M 327.03 42.06 C 339.37 36.48 354.53 38.57 365.19 46.79 C 370.71 51.75 376.09 57.36 378.32 64.64 C 381.57 72.59 381.43 81.35 380.62 89.75 C 379.97 95.61 377.74 101.10 374.85 106.19 C 383.60 108.55 392.74 110.49 400.38 115.63 C 406.93 119.59 412.67 125.28 415.64 132.43 C 416.97 135.78 415.00 139.28 412.57 141.55 C 408.90 144.16 402.96 143.52 400.47 139.57 C 397.29 135.12 393.46 130.85 388.39 128.57 C 380.45 124.76 371.69 122.98 362.99 122.05 C 359.41 122.10 355.64 121.58 352.85 119.15 C 349.80 115.29 349.91 109.93 351.40 105.45 C 353.63 101.66 358.63 100.52 360.50 96.41 C 366.08 85.26 365.51 69.92 355.75 61.22 C 351.00 57.63 344.69 54.97 338.69 56.54 C 332.55 57.56 326.76 61.35 323.91 66.96 C 318.73 75.70 319.49 86.64 323.22 95.74 C 325.07 101.05 332.32 101.74 333.51 107.42 C 334.19 110.98 334.03 114.95 332.16 118.15 C 330.40 120.86 327.02 121.69 323.98 121.90 C 315.77 122.46 307.59 123.99 299.83 126.77 C 293.43 129.05 287.71 133.38 284.13 139.18 C 282.14 142.85 277.42 145.08 273.40 143.53 C 268.61 142.05 266.59 135.98 268.70 131.66 C 273.00 122.36 281.75 116.01 290.87 111.92 C 296.70 109.21 303.02 107.97 309.15 106.16 C 303.02 95.04 301.49 81.55 304.33 69.24 C 307.46 57.47 315.74 46.92 327.03 42.06 Z" />
<path fill="#3A539B" opacity="1.00" d=" M 71.77 152.86 C 81.36 150.72 91.96 151.36 100.56 156.46 C 110.40 162.51 117.81 172.67 119.90 184.10 C 122.44 195.84 120.21 208.30 114.71 218.89 C 126.14 221.48 137.95 225.15 146.75 233.24 C 155.38 240.93 159.77 252.52 159.93 263.94 C 160.00 280.30 159.92 296.67 159.97 313.03 C 159.88 319.87 158.65 327.01 154.79 332.79 C 148.42 342.95 137.02 349.09 125.27 350.42 C 125.13 351.93 124.99 353.44 124.99 354.96 C 125.01 385.99 125.00 417.03 125.00 448.06 C 124.31 460.80 112.72 471.60 100.06 471.97 C 88.70 472.06 77.34 471.94 65.98 472.02 C 57.87 472.32 49.57 468.92 44.34 462.64 C 40.71 457.85 38.44 452.02 38.29 445.97 C 38.11 414.05 38.43 382.11 38.13 350.19 C 29.41 349.95 21.39 345.65 14.81 340.21 C 8.74 334.85 4.80 327.12 4.03 319.07 C 3.94 300.72 4.05 282.36 3.98 264.00 C 3.33 251.52 9.13 238.68 19.24 231.25 C 27.72 224.27 38.51 221.31 49.00 218.89 C 42.73 208.87 42.24 196.66 43.31 185.23 C 45.85 170.27 56.86 156.74 71.77 152.86 M 70.95 171.90 C 65.28 175.56 61.47 181.71 60.28 188.32 C 59.25 195.91 60.20 204.05 64.30 210.66 C 66.79 213.85 71.56 215.02 72.87 219.17 C 73.06 222.61 73.40 226.19 72.58 229.56 C 69.59 235.24 62.49 234.42 57.08 235.11 C 48.24 236.57 39.03 238.28 31.53 243.51 C 25.07 247.69 20.67 255.17 20.97 262.96 C 21.08 280.63 20.91 298.30 21.05 315.97 C 21.32 325.14 29.77 331.57 38.16 333.22 C 38.36 313.48 38.20 293.74 38.23 274.00 C 38.33 271.18 38.90 268.09 41.20 266.20 C 43.40 263.31 47.44 263.66 50.59 264.33 C 53.41 266.32 56.08 269.28 55.82 272.98 C 55.82 328.99 55.84 384.99 55.81 441.00 C 55.87 444.68 55.13 449.03 58.11 451.86 C 61.82 456.12 68.01 454.86 73.01 454.97 C 73.08 421.64 73.00 388.31 73.04 354.97 C 73.01 352.35 74.31 349.90 75.87 347.87 C 78.26 345.60 81.77 345.74 84.81 346.13 C 88.87 347.63 90.67 352.03 90.59 356.13 C 90.78 389.07 90.45 422.03 90.75 454.97 C 95.64 455.06 101.24 455.63 105.26 452.25 C 106.88 450.23 108.14 447.70 108.01 445.05 C 107.96 388.02 108.05 330.99 107.97 273.96 C 107.74 271.00 108.35 267.74 110.78 265.80 C 115.52 261.70 124.51 264.37 124.95 271.02 C 125.11 291.74 124.89 312.47 125.05 333.20 C 129.44 332.03 133.98 330.60 137.28 327.31 C 141.13 324.09 142.46 318.84 142.34 314.01 C 142.36 299.00 142.34 284.00 142.34 269.00 C 142.33 265.05 142.51 261.07 141.89 257.16 C 140.77 252.84 138.39 248.89 135.21 245.80 C 125.50 238.33 113.11 235.44 101.09 234.71 C 98.28 234.25 95.12 234.07 92.87 232.12 C 89.83 228.66 89.51 223.71 90.47 219.39 C 91.73 214.96 96.87 213.82 99.32 210.28 C 103.94 203.87 103.57 195.55 103.06 188.05 C 101.92 181.97 98.81 175.90 93.49 172.46 C 87.04 167.68 77.68 167.71 70.95 171.90 Z" />
<path fill="#3A539B" opacity="1.00" d=" M 224.03 168.01 C 230.23 159.71 239.32 152.90 249.93 152.03 C 254.21 152.01 258.53 151.73 262.79 152.26 C 273.34 154.46 283.04 161.19 288.29 170.68 C 290.68 174.92 292.61 179.45 293.65 184.22 C 294.73 195.96 294.51 208.57 288.08 218.92 C 302.15 221.76 317.10 227.08 325.70 239.29 C 329.85 244.33 331.66 250.78 332.86 257.08 C 333.30 265.01 332.56 272.99 333.54 280.89 C 331.96 289.56 334.20 298.29 333.01 306.95 C 332.88 311.31 333.16 315.67 332.95 320.03 C 330.91 336.65 315.25 349.35 298.93 350.18 C 298.64 379.12 298.88 408.06 298.82 437.00 C 298.70 442.00 299.27 447.09 297.98 451.99 C 295.93 461.80 287.39 469.71 277.60 471.51 C 274.78 472.13 271.87 472.00 269.00 472.02 C 258.31 471.94 247.63 472.06 236.95 471.98 C 226.80 471.61 217.31 464.76 213.72 455.27 C 211.46 450.49 212.03 445.11 212.00 440.00 C 212.00 414.66 212.00 389.33 212.00 364.00 C 211.96 359.47 212.20 354.93 211.75 350.41 C 199.24 349.11 187.29 342.02 181.12 330.92 C 178.35 325.05 176.98 318.50 177.13 312.02 C 177.18 295.99 177.12 279.97 177.15 263.95 C 177.30 252.35 181.83 240.43 190.81 232.80 C 199.63 225.08 211.07 221.31 222.35 218.92 C 214.10 203.26 213.61 182.80 224.03 168.01 M 249.53 169.51 C 241.23 171.90 235.40 179.75 233.97 188.06 C 233.50 195.10 233.28 202.73 236.90 209.06 C 238.64 212.32 242.16 213.85 244.75 216.27 C 247.75 219.58 247.33 224.57 246.52 228.63 C 245.31 232.88 240.68 234.25 236.76 234.59 C 225.44 235.41 213.67 237.57 204.20 244.20 C 198.44 248.16 194.70 254.97 194.75 261.99 C 194.66 279.33 194.75 296.67 194.71 314.00 C 194.64 317.66 195.27 321.46 197.47 324.48 C 200.55 329.57 206.54 331.63 211.95 333.22 C 212.09 312.80 211.94 292.37 212.01 271.95 C 211.96 268.92 213.84 265.90 216.64 264.69 C 221.50 262.25 228.66 265.19 228.96 271.03 C 229.04 329.03 228.99 387.04 228.99 445.05 C 228.92 447.91 230.28 450.76 232.29 452.75 C 236.56 455.56 241.88 455.26 246.73 454.72 C 246.86 453.16 247.00 451.60 247.01 450.05 C 247.01 417.71 246.96 385.36 247.03 353.03 C 247.30 347.20 254.51 344.24 259.36 346.70 C 262.53 348.04 264.25 351.59 264.01 354.93 C 264.00 388.28 263.99 421.63 264.01 454.98 C 268.23 454.89 272.72 455.67 276.67 453.74 C 279.27 452.01 281.74 449.42 281.23 446.02 C 281.24 388.34 281.25 330.66 281.22 272.98 C 280.93 269.30 283.58 266.30 286.42 264.35 C 289.31 263.78 293.11 263.22 295.30 265.72 C 297.43 267.51 298.99 270.10 298.82 272.98 C 298.86 293.05 298.70 313.14 298.88 333.21 C 305.43 331.77 311.88 327.97 314.72 321.68 C 316.46 318.02 316.00 313.91 316.04 309.99 C 316.02 294.99 316.01 279.99 316.05 264.99 C 316.39 258.81 315.01 252.05 310.35 247.65 C 302.51 239.32 290.81 236.68 279.92 235.10 C 275.50 234.58 270.57 234.85 266.75 232.23 C 262.92 229.04 263.95 223.56 264.15 219.18 C 265.50 215.44 269.88 214.16 272.27 211.21 C 276.17 206.04 277.22 199.32 277.06 192.99 C 277.48 185.42 273.67 177.89 267.86 173.15 C 262.79 169.04 255.77 167.96 249.53 169.51 Z" />
<path fill="#3A539B" opacity="1.00" d=" M 391.07 182.01 C 394.74 167.03 407.43 154.09 422.99 152.05 C 428.61 152.12 434.45 151.25 439.86 153.15 C 451.33 156.63 460.91 165.75 464.99 177.02 C 470.28 190.53 468.39 206.09 461.99 218.89 C 474.91 221.80 488.38 226.40 497.26 236.76 C 503.85 243.75 506.60 253.54 506.99 262.94 C 507.02 279.97 506.98 297.00 507.01 314.03 C 507.15 323.49 503.38 332.95 496.61 339.58 C 489.88 345.60 481.33 349.59 472.31 350.40 C 471.84 353.91 471.98 357.47 472.00 361.00 C 472.00 390.02 472.00 419.03 472.01 448.04 C 471.72 461.02 459.68 471.55 447.05 471.98 C 435.70 472.05 424.34 471.95 412.98 472.02 C 403.97 472.34 394.52 468.09 389.82 460.21 C 386.63 455.46 385.46 449.67 385.32 444.03 C 385.29 413.38 385.39 382.73 385.28 352.08 C 385.56 350.20 383.15 350.29 381.96 349.95 C 371.42 347.84 361.04 341.95 355.63 332.38 C 352.74 327.46 350.89 321.79 350.98 316.04 C 351.01 298.01 351.01 279.98 350.98 261.96 C 351.07 250.11 356.75 238.38 366.25 231.24 C 374.74 224.31 385.50 221.30 395.99 218.88 C 392.32 211.85 389.75 204.01 389.98 196.01 C 389.99 191.32 389.69 186.55 391.07 182.01 M 424.30 169.27 C 416.79 171.05 410.56 177.17 408.47 184.57 C 405.71 192.66 406.85 201.79 410.56 209.39 C 412.27 213.64 418.11 214.03 419.62 218.37 C 421.17 222.12 420.87 226.55 419.20 230.18 C 416.02 235.37 409.26 234.29 404.08 235.10 C 394.78 236.60 385.11 238.65 377.37 244.33 C 371.21 248.78 367.74 256.43 367.97 263.96 C 368.07 281.30 367.92 298.64 368.04 315.97 C 368.84 324.97 376.63 331.72 385.22 333.23 C 385.48 313.19 385.20 293.14 385.36 273.10 C 385.28 269.46 387.37 266.23 390.43 264.37 C 392.48 263.70 394.73 263.90 396.85 264.12 C 400.72 265.05 402.83 269.27 402.90 272.98 C 402.90 330.66 402.87 388.35 402.92 446.03 C 402.69 449.23 404.78 452.05 407.36 453.72 C 411.31 455.67 415.81 454.90 420.04 454.96 C 420.31 421.33 420.04 387.70 420.18 354.07 C 420.39 351.60 421.60 349.14 423.42 347.47 C 427.15 344.90 433.16 345.18 435.77 349.26 C 438.69 353.19 437.48 358.45 437.71 363.01 C 437.78 393.66 437.56 424.31 437.82 454.96 C 442.25 454.86 447.17 455.92 451.05 453.15 C 454.02 451.64 455.03 448.15 455.01 445.04 C 454.97 387.68 455.03 330.31 454.98 272.94 C 454.69 269.59 456.46 266.02 459.64 264.69 C 464.51 262.25 471.64 265.19 471.96 271.02 C 472.09 291.74 471.90 312.47 472.05 333.20 C 476.45 332.05 480.98 330.61 484.29 327.33 C 488.68 323.58 489.82 317.53 490.01 312.05 C 489.99 296.35 490.00 280.65 490.01 264.95 C 489.79 257.93 487.76 250.45 482.20 245.76 C 472.65 238.10 460.16 235.67 448.26 234.59 C 445.43 234.03 442.14 234.21 439.90 232.09 C 436.44 228.10 436.45 222.13 438.44 217.45 C 440.25 214.58 443.81 213.53 445.90 210.89 C 449.59 206.35 450.14 200.35 450.85 194.78 C 451.18 185.81 447.33 176.30 439.39 171.58 C 434.88 168.83 429.40 168.38 424.30 169.27 Z" />
</g>
</svg>
