<?xml version="1.0" encoding="UTF-8" ?>
<!DOCTYPE svg PUBLIC "-//W3C//DTD SVG 1.1//EN" "http://www.w3.org/Graphics/SVG/1.1/DTD/svg11.dtd">
<svg width="512pt" height="512pt" viewBox="0 0 512 512" version="1.1" xmlns="http://www.w3.org/2000/svg">

<g id="#2ECC71ff">
<path fill="#2ECC71" opacity="1.00" d=" M 204.08 33.00 C 208.63 24.24 218.00 18.21 227.92 18.03 C 245.95 17.95 263.97 18.07 282.00 17.97 C 289.86 17.82 298.07 20.68 303.30 26.75 C 308.37 31.78 310.81 38.95 310.91 46.00 C 310.91 73.34 310.86 100.67 310.93 128.00 C 363.96 128.00 416.98 128.01 470.01 127.99 C 481.77 128.62 492.97 134.53 500.73 143.32 C 507.46 150.81 511.10 160.66 512.00 170.61 L 512.00 450.46 C 510.68 463.63 504.12 476.55 493.11 484.16 C 489.28 487.06 484.90 489.09 480.42 490.77 C 476.01 491.88 471.53 492.97 466.96 492.99 C 326.98 493.01 187.00 492.96 47.02 493.02 C 39.66 493.10 32.26 491.49 25.64 488.27 C 10.99 481.48 1.37 466.25 0.00 450.34 L 0.00 171.44 C 0.84 158.16 7.14 145.08 17.96 137.11 C 25.88 131.00 35.94 127.51 45.97 127.97 C 97.67 128.04 149.37 127.98 201.07 128.00 C 201.10 101.00 201.10 74.00 201.07 47.00 C 201.03 42.19 202.07 37.36 204.08 33.00 M 224.27 37.05 C 222.88 38.44 221.51 39.84 220.16 41.26 C 219.84 42.71 219.51 44.15 219.11 45.57 C 218.69 50.05 219.22 54.51 219.54 58.96 C 218.74 65.28 218.75 71.69 219.53 78.01 C 219.09 83.64 218.61 89.31 219.21 94.95 C 220.09 99.61 218.59 104.27 218.95 108.96 C 218.66 113.16 220.03 117.32 219.28 121.49 C 218.60 127.29 219.05 133.13 219.54 138.91 C 218.63 145.54 218.89 152.25 219.54 158.88 C 218.88 163.72 218.92 168.62 219.03 173.50 C 220.08 176.10 220.77 179.17 223.30 180.79 C 225.81 182.65 229.06 182.25 231.99 182.31 C 249.67 182.18 267.35 182.47 285.02 182.17 C 289.66 181.87 291.83 177.34 293.05 173.46 C 293.08 169.62 291.96 165.80 292.78 161.98 C 293.88 154.64 291.77 147.31 292.95 140.01 C 293.30 135.00 292.85 130.00 292.46 125.02 C 293.26 118.70 293.26 112.28 292.46 105.97 C 292.92 100.35 293.38 94.68 292.79 89.04 C 291.89 84.36 293.42 79.69 293.05 74.98 C 293.34 70.80 291.95 66.66 292.72 62.50 C 293.55 55.44 292.78 48.35 291.97 41.32 C 290.58 39.92 289.18 38.52 287.74 37.17 C 286.64 36.83 285.54 36.46 284.45 36.08 C 266.63 35.88 248.81 36.07 230.99 35.98 C 228.69 35.89 226.47 36.48 224.27 37.05 M 19.18 165.45 C 18.69 168.63 17.84 171.79 17.98 175.04 C 18.10 266.51 17.85 357.98 18.10 449.44 C 19.04 453.64 19.88 457.97 22.28 461.62 C 28.24 472.35 41.46 476.02 52.99 475.01 C 191.48 474.92 329.96 475.14 468.44 474.90 C 473.16 473.92 477.99 472.78 481.94 469.86 C 488.98 465.46 492.63 457.38 493.89 449.43 C 494.16 357.96 493.89 266.48 494.03 175.01 C 494.18 163.25 486.96 151.30 475.55 147.50 C 470.63 145.34 465.20 146.01 459.98 145.93 C 410.29 145.95 360.60 145.91 310.91 145.95 C 310.86 154.96 310.92 163.97 310.90 172.98 C 310.94 177.36 309.74 181.66 307.80 185.57 C 305.30 190.93 300.90 195.27 295.56 197.79 C 291.06 200.07 285.97 200.86 280.97 200.83 C 264.34 200.78 247.70 200.81 231.07 200.82 C 226.06 200.86 220.95 200.10 216.45 197.80 C 210.74 195.08 206.08 190.32 203.60 184.49 C 202.12 180.86 201.02 177.00 201.08 173.04 C 201.08 164.00 201.09 154.97 201.09 145.93 C 148.73 145.95 96.36 145.90 44.00 145.95 C 32.58 146.29 22.83 154.92 19.18 165.45 Z" />
<path fill="#2ECC71" opacity="1.00" d=" M 248.51 55.58 C 254.84 54.54 261.66 54.30 267.57 57.19 C 273.32 59.94 278.06 64.69 280.81 70.44 C 283.42 75.59 283.28 81.43 282.88 87.03 C 280.89 98.14 271.39 107.49 260.16 108.95 C 255.63 109.05 250.88 109.52 246.62 107.63 C 237.69 104.49 230.89 96.36 229.11 87.10 C 228.88 82.91 228.69 78.63 229.60 74.50 C 230.13 73.14 230.68 71.79 231.22 70.44 C 233.78 64.99 238.18 60.38 243.56 57.66 C 245.20 56.95 246.84 56.25 248.51 55.58 M 253.36 72.94 C 250.61 74.38 248.39 76.61 246.94 79.36 C 246.94 81.12 246.94 82.88 246.95 84.65 C 248.44 87.36 250.64 89.56 253.36 91.03 C 255.12 91.03 256.87 91.03 258.64 91.03 C 261.36 89.57 263.58 87.37 265.04 84.64 C 265.04 82.88 265.04 81.11 265.05 79.35 C 263.58 76.62 261.38 74.42 258.66 72.94 C 256.89 72.93 255.13 72.93 253.36 72.94 Z" />
<path fill="#2ECC71" opacity="1.00" d=" M 119.75 224.63 C 121.36 220.78 125.79 218.11 129.96 219.16 C 134.40 220.16 137.33 223.94 141.36 225.79 C 143.10 226.35 144.80 227.01 146.48 227.74 C 154.30 230.62 162.59 231.91 170.45 234.66 C 179.10 237.61 186.87 243.55 191.20 251.68 C 194.40 257.60 195.19 264.40 195.64 271.00 C 195.23 277.09 194.29 283.12 193.18 289.11 C 193.33 292.46 195.04 295.61 194.86 299.02 C 194.67 305.40 192.93 311.71 190.24 317.48 C 189.91 318.82 189.60 320.15 189.27 321.49 C 187.78 329.42 183.64 336.43 180.04 343.53 C 179.99 346.29 179.98 349.05 179.96 351.82 C 181.13 352.12 182.30 352.43 183.46 352.75 C 189.60 354.27 195.62 356.30 201.47 358.68 C 209.17 361.87 216.75 365.56 223.55 370.43 C 228.23 374.15 232.66 378.63 234.39 384.52 C 235.54 388.73 236.36 393.14 235.36 397.47 C 233.46 408.00 224.98 417.09 214.49 419.38 C 212.34 419.75 210.17 419.94 208.00 419.96 C 166.01 419.95 124.01 419.96 82.01 419.95 C 72.26 420.06 62.97 414.12 58.64 405.45 C 55.54 399.67 55.43 392.88 56.44 386.56 C 57.85 379.98 62.76 374.99 67.96 371.10 C 75.44 366.31 83.29 362.02 91.53 358.68 C 93.18 357.97 94.84 357.30 96.53 356.69 C 101.82 354.32 107.55 353.26 113.13 351.78 C 112.52 347.62 112.63 343.26 110.87 339.36 C 110.32 338.41 109.79 337.47 109.26 336.52 C 104.46 329.62 103.63 321.12 100.70 313.45 C 98.95 308.48 97.59 303.27 97.96 297.96 C 97.76 294.24 99.86 290.75 99.01 287.03 C 97.58 279.31 96.00 271.35 97.66 263.53 C 98.79 256.63 102.06 250.03 107.21 245.25 C 110.29 241.87 114.31 239.64 117.99 237.01 C 117.91 232.83 117.90 228.48 119.75 224.63 M 135.37 242.77 C 134.92 244.39 134.42 246.01 133.93 247.63 C 131.93 251.23 127.94 252.74 124.52 254.64 C 121.55 256.23 119.43 258.92 117.16 261.33 C 115.84 265.23 114.41 269.21 115.11 273.41 C 115.64 275.41 115.94 277.46 116.27 279.51 C 116.78 285.77 120.10 292.85 116.02 298.57 C 116.04 299.53 116.07 300.49 116.10 301.46 C 117.05 304.84 118.02 308.23 119.29 311.52 C 121.08 314.60 120.88 318.29 122.21 321.53 C 124.62 327.38 128.44 332.64 129.93 338.85 C 131.49 344.10 130.81 349.62 130.98 355.00 C 131.15 359.72 128.21 363.89 124.69 366.76 C 122.29 368.89 118.94 369.12 115.97 369.91 C 109.95 371.10 104.23 373.33 98.43 375.23 C 91.36 378.77 84.04 381.99 77.62 386.66 C 74.69 388.65 73.59 392.20 73.86 395.61 C 75.11 397.50 76.53 399.29 78.16 400.88 C 79.30 401.19 80.44 401.54 81.56 401.92 C 123.01 402.12 164.47 401.92 205.92 402.02 C 208.25 402.11 210.50 401.54 212.74 400.96 C 214.18 399.52 215.61 398.06 217.05 396.61 C 217.18 394.19 217.22 391.77 217.14 389.35 C 215.32 386.34 212.20 384.61 209.32 382.77 C 197.69 375.93 184.86 371.26 171.61 368.77 C 171.06 368.53 169.97 368.05 169.43 367.81 C 164.05 365.15 160.94 358.88 161.80 352.99 C 162.30 348.72 161.64 344.39 162.26 340.13 C 163.34 336.03 165.17 332.15 167.27 328.47 C 168.11 326.84 168.94 325.20 169.81 323.57 C 170.82 320.31 171.73 317.01 172.26 313.64 C 173.81 309.48 176.13 305.45 176.25 300.91 C 176.82 297.30 173.49 294.22 174.45 290.61 C 175.27 286.22 175.82 281.78 176.83 277.43 C 177.32 272.06 177.60 266.53 175.91 261.33 C 173.10 256.23 168.18 252.60 162.55 251.19 C 153.43 248.60 144.01 246.81 135.37 242.77 Z" />
<path fill="#2ECC71" opacity="1.00" d=" M 292.48 246.48 C 292.66 241.60 296.90 237.06 301.89 237.15 C 328.94 237.15 355.99 237.15 383.04 237.15 C 386.83 237.11 390.79 238.95 392.29 242.61 C 394.54 247.22 392.12 252.93 387.49 254.93 C 382.73 256.05 377.83 255.63 372.99 255.67 C 348.85 255.70 324.72 255.64 300.59 255.69 C 296.20 254.69 292.66 251.10 292.48 246.48 Z" />
<path fill="#2ECC71" opacity="1.00" d=" M 292.45 283.53 C 292.74 278.91 295.71 273.75 300.93 274.01 C 349.98 273.98 399.03 274.02 448.07 273.99 C 451.83 273.49 454.90 276.41 456.57 279.47 C 458.86 285.13 454.13 292.11 448.03 291.99 C 399.35 292.02 350.67 291.99 301.99 292.00 C 297.07 292.39 293.08 288.20 292.45 283.53 Z" />
<path fill="#2ECC71" opacity="1.00" d=" M 298.31 347.44 C 301.12 346.62 304.13 347.10 307.03 346.99 C 315.34 347.16 323.68 346.71 331.97 347.19 C 335.33 348.69 338.57 352.02 338.06 355.98 C 338.58 360.80 333.78 365.47 328.99 365.01 C 319.29 364.92 309.59 365.15 299.90 364.90 C 291.26 364.03 290.29 350.04 298.31 347.44 Z" />
<path fill="#2ECC71" opacity="1.00" d=" M 362.33 347.43 C 364.14 346.78 366.13 347.05 368.02 346.97 C 380.06 347.11 392.11 346.84 404.14 347.09 C 412.10 347.92 413.70 360.27 407.01 363.89 C 404.60 365.43 401.62 364.91 398.92 365.02 C 387.24 364.89 375.56 365.17 363.88 364.90 C 355.25 363.99 354.29 350.03 362.33 347.43 Z" />
<path fill="#2ECC71" opacity="1.00" d=" M 294.67 386.80 C 296.81 383.92 300.54 383.15 303.94 383.24 C 351.98 383.32 400.02 383.18 448.06 383.31 C 454.24 383.16 458.82 389.97 456.59 395.68 C 455.84 398.15 453.63 399.60 451.62 400.97 C 449.80 401.42 447.95 401.81 446.07 401.78 C 398.39 401.76 350.71 401.78 303.03 401.77 C 298.94 401.97 294.97 399.76 293.18 396.06 C 293.02 393.00 292.09 389.13 294.67 386.80 Z" />
</g>
</svg>
