<?xml version="1.0" encoding="UTF-8" ?>
<!DOCTYPE svg PUBLIC "-//W3C//DTD SVG 1.1//EN" "http://www.w3.org/Graphics/SVG/1.1/DTD/svg11.dtd">
<svg width="512pt" height="512pt" viewBox="0 0 512 512" version="1.1" xmlns="http://www.w3.org/2000/svg">

<g id="#19B5FEff">
<path fill="#19B5FE" opacity="1.00" d=" M 370.32 32.22 C 373.02 21.31 383.66 12.89 394.95 13.04 C 424.32 13.03 453.70 13.01 483.07 13.04 C 494.67 12.98 505.18 21.90 507.74 33.07 C 509.02 39.64 508.47 46.36 508.57 53.01 C 508.57 196.34 508.56 339.67 508.58 483.00 C 508.56 487.53 509.35 493.13 505.27 496.28 C 502.08 499.66 497.11 498.43 493.00 498.62 C 333.67 498.62 174.33 498.61 15.00 498.63 C 10.04 499.05 4.95 495.25 5.04 490.05 C 4.97 461.02 5.05 431.99 5.00 402.96 C 4.85 396.56 7.54 390.39 11.59 385.54 C 16.41 380.07 23.69 376.99 30.95 377.01 C 59.64 377.01 88.33 377.04 117.02 377.00 C 120.15 376.94 123.25 377.45 126.29 378.17 C 126.42 345.78 126.24 313.40 126.37 281.01 C 126.62 271.64 132.25 262.96 140.41 258.51 C 145.18 256.03 150.67 255.55 155.95 255.47 C 183.31 255.49 210.67 255.49 238.03 255.47 C 241.43 255.39 244.73 256.28 247.99 257.15 C 248.04 224.41 247.95 191.66 248.03 158.92 C 248.35 145.84 259.96 134.56 273.00 134.31 C 301.68 134.17 330.36 134.31 359.04 134.24 C 362.51 134.10 365.91 134.84 369.29 135.49 C 369.34 104.32 369.32 73.15 369.30 41.99 C 369.25 38.70 369.38 35.39 370.32 32.22 M 388.20 34.33 C 386.36 37.95 386.98 42.10 386.89 46.00 C 386.94 191.00 386.86 335.99 386.93 480.98 C 421.62 481.05 456.30 481.01 490.99 481.00 C 491.02 333.98 490.97 186.96 491.02 39.95 C 491.36 35.04 487.08 30.18 482.03 30.62 C 453.34 30.62 424.66 30.63 395.97 30.61 C 392.96 30.45 389.88 31.79 388.20 34.33 M 265.58 160.97 C 265.63 267.65 265.53 374.33 265.63 481.00 C 300.18 481.02 334.73 481.03 369.28 481.00 C 369.38 375.66 369.27 270.33 369.34 165.00 C 369.24 161.73 369.85 158.07 367.78 155.25 C 365.64 152.77 362.25 151.62 359.04 151.82 C 330.68 151.90 302.32 151.80 273.97 151.87 C 269.11 151.56 265.13 156.26 265.58 160.97 M 148.32 274.20 C 145.71 275.85 143.69 278.76 143.95 281.96 C 143.98 348.30 143.92 414.65 143.98 480.99 C 178.65 481.04 213.32 481.02 247.99 481.00 C 248.00 414.67 248.02 348.33 247.98 282.00 C 248.13 277.11 243.87 272.91 239.00 273.02 C 212.00 272.95 185.00 273.04 158.00 272.98 C 154.75 272.99 151.31 272.66 148.32 274.20 M 27.32 395.17 C 24.68 396.91 22.19 399.56 22.62 402.99 C 22.63 428.99 22.56 455.00 22.66 481.00 C 57.20 481.02 91.75 481.03 126.30 480.99 C 126.36 454.99 126.34 428.98 126.31 402.97 C 126.47 398.50 122.48 394.54 118.02 394.64 C 90.02 394.56 62.01 394.68 34.00 394.58 C 31.77 394.64 29.46 394.46 27.32 395.17 Z" />
<path fill="#19B5FE" opacity="1.00" d=" M 109.11 39.91 C 108.48 34.95 112.94 30.01 117.97 30.28 C 146.95 30.26 175.94 30.22 204.93 30.30 C 210.05 30.42 213.77 35.14 213.53 40.11 C 213.58 68.37 213.53 96.64 213.55 124.90 C 213.64 129.20 210.63 133.45 206.33 134.30 C 201.46 135.60 195.61 131.27 196.01 126.07 C 195.94 104.23 196.10 82.37 195.93 60.53 C 194.61 61.67 193.32 62.85 192.07 64.07 C 153.75 102.42 115.38 140.71 77.04 179.05 C 74.15 181.81 71.59 185.36 67.53 186.43 C 62.43 187.54 56.91 183.25 57.01 177.96 C 56.68 174.72 58.91 172.14 60.99 169.96 C 91.01 139.99 121.02 110.01 151.01 80.00 C 162.12 69.68 172.77 58.87 183.32 47.97 C 161.54 47.66 139.75 47.97 117.97 47.83 C 113.55 48.00 109.51 44.25 109.11 39.91 Z" />
</g>
</svg>
